<svg width="899" height="159" viewBox="0 0 899 159" fill="none" xmlns="http://www.w3.org/2000/svg">
    <style>
        @keyframes title {
        0% {
        transform: translateY(10px);
        }
        100% {
        transform: translateY(0px);
        }
        }
        #top {
        animation: title 2s ease-in-out;
        }
    </style>
    <g id="3D Text">
        <g id="bottom">
            <path d="M89.3875 24.3H65.3875C64.6375 24.3 64.0375 24.9 64.0375 25.65V62.7C64.0375 63.45 63.4375 64.05 62.6875 64.05H32.8375C32.0875 64.05 31.4875 63.45 31.4875 62.7V25.65C31.4875 24.9 30.8875 24.3 30.2875 24.3H6.1375C5.3875 24.3 4.9375 24.9 4.9375 25.65V127.8C4.9375 128.4 5.3875 129 6.1375 129H30.2875C30.8875 129 31.4875 128.4 31.4875 127.8V89.25C31.4875 88.5 32.0875 88.05 32.8375 88.05H62.6875C63.4375 88.05 64.0375 88.5 64.0375 89.25V127.8C64.0375 128.4 64.6375 129 65.3875 129H89.3875C90.1375 129 90.7375 128.4 90.7375 127.8V25.65C90.7375 24.9 90.1375 24.3 89.3875 24.3ZM200.176 127.5L161.626 25.2C161.476 24.6 160.876 24.3 160.276 24.3H137.626C136.876 24.3 136.276 24.75 136.126 25.35L97.5762 127.5C97.2762 128.4 97.8762 129.3 98.7762 129.3H124.876C125.476 129.3 125.926 128.85 126.076 128.4L131.626 111.6C131.776 111.15 132.376 110.7 132.826 110.7H164.926C165.526 110.7 165.976 111.15 166.126 111.6L171.676 128.1C171.826 128.85 172.426 129.3 173.176 129.3H198.976C199.876 129.3 200.476 128.4 200.176 127.5ZM156.976 89.25H140.776C139.876 89.25 139.276 88.5 139.576 87.6L147.676 63.15C147.976 61.95 149.776 61.95 150.226 63.15L158.176 87.6C158.476 88.35 157.876 89.25 156.976 89.25ZM294.043 108.6L276.193 95.55C275.743 95.25 274.843 95.25 274.543 95.85C268.843 102.75 260.593 106.8 251.743 106.8C235.543 106.8 222.343 93.3 222.343 76.65C222.343 60.15 235.543 46.65 251.743 46.65C260.293 46.65 268.243 50.25 273.943 56.85C274.393 57.3 275.143 57.45 275.593 57L293.443 43.95C294.043 43.5 294.193 42.75 293.743 42.15C289.093 36.3 283.093 31.35 276.493 27.75C268.843 23.7 260.443 21.6 251.743 21.6C222.043 21.6 198.043 46.35 198.043 76.65C198.043 107.1 222.043 131.7 251.743 131.7C268.393 131.7 284.143 123.9 294.343 110.4C294.793 109.95 294.643 109.05 294.043 108.6ZM390.636 127.05L355.236 75.9C354.936 75.45 354.936 74.85 355.236 74.4L387.186 26.4C387.786 25.5 387.036 24.3 385.986 24.3H361.086C360.786 24.3 360.336 24.6 360.036 24.9L334.386 64.95C333.786 66.15 331.986 65.55 331.986 64.35V25.65C331.986 24.9 331.386 24.3 330.636 24.3H306.636C305.886 24.3 305.436 24.9 305.436 25.65V127.8C305.436 128.55 305.886 129 306.636 129H330.786C331.386 129 331.986 128.4 331.986 127.8V88.2C331.986 87 333.786 86.4 334.386 87.6L359.136 128.4C359.286 128.85 359.736 129 360.186 129H389.586C390.636 129 391.236 127.95 390.636 127.05ZM426.02 24.3H401.87C401.12 24.3 400.67 24.9 400.67 25.65V127.8C400.67 128.4 401.12 129 401.87 129H426.02C426.62 129 427.22 128.4 427.22 127.8V25.65C427.22 24.9 426.62 24.3 426.02 24.3ZM502.009 105H469.459C468.709 105 468.109 104.4 468.109 103.65V89.25C468.109 88.5 468.709 87.9 469.459 87.9H493.159C493.909 87.9 494.509 87.3 494.509 86.55V65.25C494.509 64.5 493.909 63.9 493.159 63.9H469.459C468.709 63.9 468.109 63.3 468.109 62.55V49.8C468.109 49.05 468.709 48.45 469.459 48.45H502.009C502.759 48.45 503.359 47.85 503.359 46.95L501.259 25.65C501.109 24.9 500.659 24.45 499.909 24.45H442.759C442.009 24.45 441.559 25.05 441.559 25.65V127.65C441.559 128.55 442.159 129.15 442.909 129.15H499.909C500.659 129.15 501.109 128.7 501.259 127.95L503.359 106.5C503.509 105.75 502.759 105 502.009 105ZM581.507 24H514.907C514.157 24 513.707 24.6 513.707 25.35V46.95C513.707 47.55 514.157 48.15 514.907 48.15H533.657C534.407 48.15 535.007 48.75 535.007 49.5V127.65C535.007 128.25 535.457 128.85 536.207 128.85H560.357C561.107 128.85 561.557 128.25 561.557 127.65V49.5C561.557 48.75 562.157 48.15 562.907 48.15H581.507C582.257 48.15 582.857 47.55 582.857 46.95V25.35C582.857 24.6 582.257 24 581.507 24ZM677.659 24.3H653.659C652.909 24.3 652.309 24.9 652.309 25.65V62.7C652.309 63.45 651.709 64.05 650.959 64.05H621.109C620.359 64.05 619.759 63.45 619.759 62.7V25.65C619.759 24.9 619.159 24.3 618.559 24.3H594.409C593.659 24.3 593.209 24.9 593.209 25.65V127.8C593.209 128.4 593.659 129 594.409 129H618.559C619.159 129 619.759 128.4 619.759 127.8V89.25C619.759 88.5 620.359 88.05 621.109 88.05H650.959C651.709 88.05 652.309 88.5 652.309 89.25V127.8C652.309 128.4 652.909 129 653.659 129H677.659C678.409 129 679.009 128.4 679.009 127.8V25.65C679.009 24.9 678.409 24.3 677.659 24.3ZM742.08 21.3C712.38 21.3 688.38 46.05 688.38 76.35C688.38 106.8 712.38 131.55 742.08 131.55C771.78 131.55 795.93 106.8 795.93 76.35C795.93 46.05 771.78 21.3 742.08 21.3ZM742.08 106.5C725.88 106.5 712.68 93 712.68 76.35C712.68 59.85 725.88 46.35 742.08 46.35C758.28 46.35 771.63 59.85 771.63 76.35C771.63 93 758.28 106.5 742.08 106.5ZM892.605 24.15H869.655C868.905 24.15 868.305 24.75 868.305 25.35L868.755 77.55C868.755 78.9 867.255 79.35 866.505 78.3L830.805 24.6C830.505 24.3 830.205 24.15 829.755 24.15H808.755C808.005 24.15 807.555 24.6 807.555 25.35V127.65C807.555 128.25 808.005 128.85 808.755 128.85H831.705C832.455 128.85 833.055 128.25 833.055 127.5L832.605 79.35C832.605 78 834.105 77.55 834.855 78.6L870.405 128.25C870.555 128.7 871.005 128.85 871.455 128.85H892.605C893.355 128.85 893.805 128.25 893.805 127.65V25.35C893.805 24.6 893.355 24.15 892.605 24.15Z"
                  fill="#6183E7"/>
            <path d="M89.3875 22.3H65.3875V26.3H89.3875V22.3ZM65.3875 22.3C63.5329 22.3 62.0375 23.7954 62.0375 25.65H66.0375C66.0375 26.0046 65.7421 26.3 65.3875 26.3V22.3ZM62.0375 25.65V62.7H66.0375V25.65H62.0375ZM62.0375 62.7C62.0375 62.3454 62.3329 62.05 62.6875 62.05V66.05C64.5421 66.05 66.0375 64.5546 66.0375 62.7H62.0375ZM62.6875 62.05H32.8375V66.05H62.6875V62.05ZM32.8375 62.05C33.1921 62.05 33.4875 62.3454 33.4875 62.7H29.4875C29.4875 64.5546 30.9829 66.05 32.8375 66.05V62.05ZM33.4875 62.7V25.65H29.4875V62.7H33.4875ZM33.4875 25.65C33.4875 23.9492 32.1398 22.3 30.2875 22.3V26.3C29.9247 26.3 29.7192 26.133 29.6429 26.0503C29.5521 25.952 29.4875 25.8138 29.4875 25.65H33.4875ZM30.2875 22.3H6.1375V26.3H30.2875V22.3ZM6.1375 22.3C5.18266 22.3 4.32117 22.7026 3.72948 23.4019C3.16595 24.0679 2.9375 24.8887 2.9375 25.65H6.9375C6.9375 25.6613 6.93405 25.8071 6.78302 25.9856C6.70535 26.0774 6.59931 26.1627 6.46988 26.2222C6.33994 26.282 6.22135 26.3 6.1375 26.3V22.3ZM2.9375 25.65V127.8H6.9375V25.65H2.9375ZM2.9375 127.8C2.9375 129.337 4.12268 131 6.1375 131V127C6.33413 127 6.5655 127.093 6.73056 127.274C6.87188 127.428 6.9375 127.614 6.9375 127.8H2.9375ZM6.1375 131H30.2875V127H6.1375V131ZM30.2875 131C31.238 131 32.021 130.545 32.5267 130.039C33.0324 129.534 33.4875 128.75 33.4875 127.8H29.4875C29.4875 127.45 29.6426 127.266 29.6983 127.211C29.754 127.155 29.937 127 30.2875 127V131ZM33.4875 127.8V89.25H29.4875V127.8H33.4875ZM33.4875 89.25C33.4875 89.3338 33.4696 89.4524 33.4097 89.5824C33.3502 89.7118 33.2649 89.8178 33.1731 89.8955C32.9946 90.0466 32.8488 90.05 32.8375 90.05V86.05C32.0762 86.05 31.2554 86.2784 30.5894 86.842C29.8901 87.4337 29.4875 88.2952 29.4875 89.25H33.4875ZM32.8375 90.05H62.6875V86.05H32.8375V90.05ZM62.6875 90.05C62.6762 90.05 62.5304 90.0466 62.3519 89.8955C62.2601 89.8179 62.1749 89.7118 62.1153 89.5824C62.0555 89.4524 62.0375 89.3338 62.0375 89.25H66.0375C66.0375 88.2952 65.6349 87.4337 64.9356 86.842C64.2696 86.2784 63.4488 86.05 62.6875 86.05V90.05ZM62.0375 89.25V127.8H66.0375V89.25H62.0375ZM62.0375 127.8C62.0375 129.652 63.6867 131 65.3875 131V127C65.5513 127 65.6895 127.065 65.7878 127.155C65.8705 127.232 66.0375 127.437 66.0375 127.8H62.0375ZM65.3875 131H89.3875V127H65.3875V131ZM89.3875 131C91.0883 131 92.7375 129.652 92.7375 127.8H88.7375C88.7375 127.437 88.9045 127.232 88.9872 127.155C89.0856 127.065 89.2237 127 89.3875 127V131ZM92.7375 127.8V25.65H88.7375V127.8H92.7375ZM92.7375 25.65C92.7375 23.7954 91.2421 22.3 89.3875 22.3V26.3C89.0329 26.3 88.7375 26.0046 88.7375 25.65H92.7375ZM200.176 127.5L202.074 126.868L202.061 126.831L202.048 126.795L200.176 127.5ZM161.626 25.2L159.686 25.6851L159.714 25.7971L159.755 25.9052L161.626 25.2ZM136.126 25.35L137.997 26.0562L138.038 25.9476L138.066 25.8351L136.126 25.35ZM97.5762 127.5L95.705 126.794L95.6912 126.83L95.6788 126.868L97.5762 127.5ZM126.076 128.4L127.974 129.032L127.975 129.027L126.076 128.4ZM131.626 111.6L129.729 110.968L129.727 110.973L131.626 111.6ZM166.126 111.6L164.229 112.232L164.231 112.238L166.126 111.6ZM171.676 128.1L173.637 127.708L173.612 127.583L173.572 127.462L171.676 128.1ZM139.576 87.6L141.474 88.2324L141.475 88.229L139.576 87.6ZM147.676 63.15L149.575 63.779L149.598 63.7078L149.616 63.6351L147.676 63.15ZM150.226 63.15L152.128 62.5316L152.114 62.4893L152.099 62.4478L150.226 63.15ZM158.176 87.6L156.274 88.2184L156.295 88.2813L156.319 88.3428L158.176 87.6ZM202.048 126.795L163.498 24.4947L159.755 25.9052L198.305 128.205L202.048 126.795ZM163.566 24.7149C163.109 22.8862 161.391 22.3 160.276 22.3V26.3C160.261 26.3 160.187 26.2994 160.072 26.2283C159.933 26.1427 159.754 25.9589 159.686 25.6851L163.566 24.7149ZM160.276 22.3H137.626V26.3H160.276V22.3ZM137.626 22.3C136.107 22.3 134.593 23.2384 134.186 24.8649L138.066 25.8351C137.96 26.2616 137.646 26.3 137.626 26.3V22.3ZM134.255 24.6438L95.705 126.794L99.4474 128.206L137.997 26.0562L134.255 24.6438ZM95.6788 126.868C95.0005 128.903 96.3467 131.3 98.7762 131.3V127.3C99.0351 127.3 99.2672 127.444 99.3903 127.628C99.5086 127.806 99.5182 127.999 99.4735 128.132L95.6788 126.868ZM98.7762 131.3H124.876V127.3H98.7762V131.3ZM124.876 131.3C126.53 131.3 127.618 130.1 127.974 129.032L124.179 127.768C124.223 127.634 124.292 127.542 124.378 127.471C124.48 127.388 124.654 127.3 124.876 127.3V131.3ZM127.975 129.027L133.525 112.227L129.727 110.973L124.177 127.773L127.975 129.027ZM133.524 112.232C133.47 112.394 133.401 112.487 133.375 112.519C133.346 112.556 133.325 112.573 133.314 112.581C133.303 112.589 133.275 112.609 133.219 112.632C133.17 112.651 133.034 112.7 132.826 112.7V108.7C132.01 108.7 131.332 109.067 130.914 109.381C130.484 109.703 129.973 110.234 129.729 110.968L133.524 112.232ZM132.826 112.7H164.926V108.7H132.826V112.7ZM164.926 112.7C164.704 112.7 164.53 112.612 164.428 112.529C164.342 112.458 164.273 112.366 164.229 112.232L168.024 110.968C167.668 109.9 166.58 108.7 164.926 108.7V112.7ZM164.231 112.238L169.781 128.738L173.572 127.462L168.022 110.962L164.231 112.238ZM169.715 128.492C170.066 130.246 171.545 131.3 173.176 131.3V127.3C173.205 127.3 173.313 127.312 173.437 127.409C173.568 127.511 173.624 127.639 173.637 127.708L169.715 128.492ZM173.176 131.3H198.976V127.3H173.176V131.3ZM198.976 131.3C201.406 131.3 202.752 128.903 202.074 126.868L198.279 128.132C198.234 127.999 198.244 127.806 198.362 127.628C198.485 127.444 198.717 127.3 198.976 127.3V131.3ZM156.976 87.25H140.776V91.25H156.976V87.25ZM140.776 87.25C140.891 87.25 141.136 87.3092 141.326 87.5625C141.529 87.8324 141.513 88.115 141.474 88.2324L137.679 86.9676C137.34 87.985 137.474 89.0926 138.126 89.9625C138.766 90.8158 139.761 91.25 140.776 91.25V87.25ZM141.475 88.229L149.575 63.779L145.778 62.521L137.678 86.971L141.475 88.229ZM149.616 63.6351C149.57 63.8204 149.444 64.0037 149.272 64.1226C149.119 64.2274 148.981 64.25 148.895 64.25C148.743 64.25 148.467 64.1543 148.354 63.8522L152.099 62.4478C151.536 60.9457 150.135 60.25 148.895 60.25C147.645 60.25 146.156 60.9848 145.736 62.6649L149.616 63.6351ZM148.324 63.7684L156.274 88.2184L160.078 86.9816L152.128 62.5316L148.324 63.7684ZM156.319 88.3428C156.185 88.0066 156.28 87.7112 156.392 87.5529C156.513 87.3823 156.727 87.25 156.976 87.25V91.25C159.198 91.25 160.893 89.0066 160.033 86.8572L156.319 88.3428ZM294.043 108.6L295.243 107L295.233 106.993L295.223 106.985L294.043 108.6ZM276.193 95.55L277.373 93.9355L277.338 93.9099L277.302 93.8859L276.193 95.55ZM274.543 95.85L276.085 97.1238L276.23 96.9482L276.332 96.7444L274.543 95.85ZM273.943 56.85L272.429 58.1572L272.477 58.2125L272.529 58.2642L273.943 56.85ZM275.593 57L274.413 55.3855L274.288 55.4766L274.179 55.5858L275.593 57ZM293.443 43.95L294.623 45.5645L294.633 45.5573L294.643 45.55L293.443 43.95ZM293.743 42.15L295.343 40.95L295.326 40.9275L295.309 40.9055L293.743 42.15ZM276.493 27.75L277.451 25.9942L277.44 25.9882L277.429 25.9824L276.493 27.75ZM294.343 110.4L292.929 108.986L292.831 109.084L292.747 109.194L294.343 110.4ZM295.223 106.985L277.373 93.9355L275.013 97.1645L292.863 110.215L295.223 106.985ZM277.302 93.8859C276.629 93.4369 275.801 93.2912 275.078 93.3762C274.329 93.4643 273.299 93.8655 272.754 94.9556L276.332 96.7444C276.087 97.2345 275.657 97.3357 275.545 97.3488C275.476 97.3569 275.419 97.3525 275.366 97.3411C275.319 97.3309 275.216 97.3024 275.084 97.2141L277.302 93.8859ZM273.001 94.5762C267.662 101.039 259.968 104.8 251.743 104.8V108.8C261.218 108.8 270.024 104.461 276.085 97.1238L273.001 94.5762ZM251.743 104.8C236.693 104.8 224.343 92.2416 224.343 76.65H220.343C220.343 94.3584 234.393 108.8 251.743 108.8V104.8ZM224.343 76.65C224.343 61.2149 236.687 48.65 251.743 48.65V44.65C234.399 44.65 220.343 59.0851 220.343 76.65H224.343ZM251.743 48.65C259.712 48.65 267.109 51.9971 272.429 58.1572L275.457 55.5428C269.377 48.5029 260.874 44.65 251.743 44.65V48.65ZM272.529 58.2642C273.051 58.786 273.754 59.1514 274.52 59.2471C275.313 59.3461 276.267 59.1543 277.007 58.4142L274.179 55.5858C274.469 55.2957 274.823 55.2538 275.016 55.2779C275.182 55.2986 275.285 55.364 275.357 55.4358L272.529 58.2642ZM276.773 58.6145L294.623 45.5645L292.263 42.3355L274.413 55.3855L276.773 58.6145ZM294.643 45.55C296.026 44.5126 296.529 42.5309 295.343 40.95L292.143 43.35C292.049 43.2242 291.974 43.005 292.017 42.7587C292.058 42.5281 292.179 42.3982 292.243 42.35L294.643 45.55ZM295.309 40.9055C290.484 34.8353 284.273 29.7155 277.451 25.9942L275.535 29.5058C281.913 32.9845 287.702 37.7647 292.177 43.3945L295.309 40.9055ZM277.429 25.9824C269.492 21.7804 260.77 19.6 251.743 19.6V23.6C260.115 23.6 268.194 25.6196 275.557 29.5176L277.429 25.9824ZM251.743 19.6C220.888 19.6 196.043 45.296 196.043 76.65H200.043C200.043 47.404 223.197 23.6 251.743 23.6V19.6ZM196.043 76.65C196.043 108.158 220.892 133.7 251.743 133.7V129.7C223.194 129.7 200.043 106.042 200.043 76.65H196.043ZM251.743 133.7C269.022 133.7 285.362 125.604 295.939 111.606L292.747 109.194C282.924 122.196 267.764 129.7 251.743 129.7V133.7ZM295.757 111.814C296.555 111.016 296.692 109.965 296.56 109.171C296.425 108.362 295.983 107.555 295.243 107L292.843 110.2C292.703 110.095 292.636 109.963 292.614 109.829C292.594 109.71 292.581 109.334 292.929 108.986L295.757 111.814ZM390.636 127.05L392.3 125.941L392.29 125.926L392.28 125.912L390.636 127.05ZM355.236 75.9L353.571 77.0094L353.581 77.0239L353.591 77.0382L355.236 75.9ZM355.236 74.4L356.9 75.5094L356.9 75.5082L355.236 74.4ZM387.186 26.4L385.521 25.2906L385.521 25.2918L387.186 26.4ZM360.036 24.9L358.621 23.4858L358.468 23.639L358.351 23.8214L360.036 24.9ZM334.386 64.95L332.701 63.8714L332.644 63.9607L332.597 64.0556L334.386 64.95ZM334.386 87.6L332.597 88.4944L332.633 88.5675L332.676 88.6373L334.386 87.6ZM359.136 128.4L361.033 127.768L360.962 127.555L360.846 127.363L359.136 128.4ZM392.28 125.912L356.88 74.7618L353.591 77.0382L388.991 128.188L392.28 125.912ZM356.9 74.7906C357.048 75.0124 357.048 75.2876 356.9 75.5094L353.571 73.2906C352.824 74.4124 352.824 75.8876 353.571 77.0094L356.9 74.7906ZM356.9 75.5082L388.85 27.5082L385.521 25.2918L353.571 73.2918L356.9 75.5082ZM388.85 27.5094C389.638 26.3264 389.5 24.9657 388.926 23.995C388.365 23.0461 387.298 22.3 385.986 22.3V26.3C385.723 26.3 385.556 26.1539 385.482 26.03C385.44 25.9586 385.4 25.8518 385.399 25.7118C385.397 25.5605 385.443 25.4089 385.521 25.2906L388.85 27.5094ZM385.986 22.3H361.086V26.3H385.986V22.3ZM361.086 22.3C360.378 22.3 359.804 22.6088 359.532 22.7725C359.192 22.9764 358.877 23.2306 358.621 23.4858L361.45 26.3142C361.468 26.2964 361.493 26.2732 361.523 26.2494C361.554 26.2255 361.577 26.2098 361.59 26.2025C361.605 26.1932 361.585 26.2075 361.529 26.2282C361.499 26.2393 361.448 26.2558 361.38 26.2703C361.313 26.2845 361.212 26.3 361.086 26.3V22.3ZM358.351 23.8214L332.701 63.8714L336.07 66.0286L361.72 25.9786L358.351 23.8214ZM332.597 64.0556C332.671 63.9079 332.833 63.7408 333.063 63.6558C333.262 63.5821 333.421 63.6016 333.51 63.6269C333.622 63.659 333.986 63.8461 333.986 64.35H329.986C329.986 66.0539 331.249 67.141 332.411 67.473C333.655 67.8286 335.355 67.4836 336.174 65.8444L332.597 64.0556ZM333.986 64.35V25.65H329.986V64.35H333.986ZM333.986 25.65C333.986 23.7954 332.49 22.3 330.636 22.3V26.3C330.281 26.3 329.986 26.0046 329.986 25.65H333.986ZM330.636 22.3H306.636V26.3H330.636V22.3ZM306.636 22.3C305.681 22.3 304.819 22.7026 304.228 23.4019C303.664 24.0679 303.436 24.8887 303.436 25.65H307.436C307.436 25.6613 307.432 25.8071 307.281 25.9856C307.203 26.0774 307.097 26.1627 306.968 26.2222C306.838 26.282 306.719 26.3 306.636 26.3V22.3ZM303.436 25.65V127.8H307.436V25.65H303.436ZM303.436 127.8C303.436 128.576 303.676 129.432 304.34 130.095C305.004 130.759 305.86 131 306.636 131V127C306.662 127 306.917 127.016 307.169 127.267C307.42 127.518 307.436 127.774 307.436 127.8H303.436ZM306.636 131H330.786V127H306.636V131ZM330.786 131C331.736 131 332.519 130.545 333.025 130.039C333.53 129.534 333.986 128.75 333.986 127.8H329.986C329.986 127.45 330.141 127.266 330.196 127.211C330.252 127.155 330.435 127 330.786 127V131ZM333.986 127.8V88.2H329.986V127.8H333.986ZM333.986 88.2C333.986 88.7039 333.622 88.891 333.51 88.923C333.421 88.9484 333.262 88.9679 333.063 88.8942C332.833 88.8092 332.671 88.642 332.597 88.4944L336.174 86.7056C335.355 85.0664 333.655 84.7214 332.411 85.077C331.249 85.409 329.986 86.496 329.986 88.2H333.986ZM332.676 88.6373L357.426 129.437L360.846 127.363L336.096 86.5627L332.676 88.6373ZM357.238 129.032C357.808 130.743 359.46 131 360.186 131V127C360.157 127 360.265 126.991 360.442 127.08C360.541 127.129 360.663 127.21 360.779 127.338C360.899 127.47 360.984 127.619 361.033 127.768L357.238 129.032ZM360.186 131H389.586V127H360.186V131ZM389.586 131C390.81 131 391.91 130.366 392.482 129.326C393.062 128.272 392.997 126.986 392.3 125.941L388.971 128.159C388.874 128.014 388.81 127.703 388.977 127.399C389.136 127.109 389.411 127 389.586 127V131ZM426.02 22.3H401.87V26.3H426.02V22.3ZM401.87 22.3C400.915 22.3 400.054 22.7026 399.462 23.4019C398.898 24.0679 398.67 24.8887 398.67 25.65H402.67C402.67 25.6613 402.666 25.8071 402.515 25.9856C402.438 26.0774 402.332 26.1627 402.202 26.2222C402.072 26.282 401.954 26.3 401.87 26.3V22.3ZM398.67 25.65V127.8H402.67V25.65H398.67ZM398.67 127.8C398.67 129.337 399.855 131 401.87 131V127C402.067 127 402.298 127.093 402.463 127.274C402.604 127.428 402.67 127.614 402.67 127.8H398.67ZM401.87 131H426.02V127H401.87V131ZM426.02 131C426.97 131 427.753 130.545 428.259 130.039C428.765 129.534 429.22 128.75 429.22 127.8H425.22C425.22 127.45 425.375 127.266 425.431 127.211C425.486 127.155 425.669 127 426.02 127V131ZM429.22 127.8V25.65H425.22V127.8H429.22ZM429.22 25.65C429.22 23.9492 427.872 22.3 426.02 22.3V26.3C425.657 26.3 425.452 26.133 425.375 26.0503C425.285 25.952 425.22 25.8138 425.22 25.65H429.22ZM503.359 46.95H505.359V46.8516L505.349 46.7538L503.359 46.95ZM501.259 25.65L503.249 25.4538L503.239 25.355L503.22 25.2578L501.259 25.65ZM501.259 127.95L503.22 128.342L503.239 128.244L503.249 128.145L501.259 127.95ZM503.359 106.5L501.397 106.108L501.378 106.206L501.368 106.305L503.359 106.5ZM502.009 103H469.459V107H502.009V103ZM469.459 103C469.813 103 470.109 103.295 470.109 103.65H466.109C466.109 105.505 467.604 107 469.459 107V103ZM470.109 103.65V89.25H466.109V103.65H470.109ZM470.109 89.25C470.109 89.6046 469.813 89.9 469.459 89.9V85.9C467.604 85.9 466.109 87.3954 466.109 89.25H470.109ZM469.459 89.9H493.159V85.9H469.459V89.9ZM493.159 89.9C495.013 89.9 496.509 88.4046 496.509 86.55H492.509C492.509 86.1954 492.804 85.9 493.159 85.9V89.9ZM496.509 86.55V65.25H492.509V86.55H496.509ZM496.509 65.25C496.509 63.3954 495.013 61.9 493.159 61.9V65.9C492.804 65.9 492.509 65.6046 492.509 65.25H496.509ZM493.159 61.9H469.459V65.9H493.159V61.9ZM469.459 61.9C469.813 61.9 470.109 62.1954 470.109 62.55H466.109C466.109 64.4046 467.604 65.9 469.459 65.9V61.9ZM470.109 62.55V49.8H466.109V62.55H470.109ZM470.109 49.8C470.109 50.1546 469.813 50.45 469.459 50.45V46.45C467.604 46.45 466.109 47.9454 466.109 49.8H470.109ZM469.459 50.45H502.009V46.45H469.459V50.45ZM502.009 50.45C504 50.45 505.359 48.8124 505.359 46.95H501.359C501.359 46.952 501.359 46.9209 501.379 46.8671C501.399 46.8132 501.436 46.7448 501.499 46.6766C501.636 46.5293 501.831 46.45 502.009 46.45V50.45ZM505.349 46.7538L503.249 25.4538L499.268 25.8462L501.368 47.1462L505.349 46.7538ZM503.22 25.2578C503.087 24.593 502.781 23.8639 502.16 23.2944C501.513 22.7015 500.707 22.45 499.909 22.45V26.45C499.895 26.45 499.832 26.4478 499.738 26.4142C499.641 26.3793 499.543 26.3213 499.457 26.2431C499.286 26.0861 499.28 25.957 499.297 26.0422L503.22 25.2578ZM499.909 22.45H442.759V26.45H499.909V22.45ZM442.759 22.45C440.744 22.45 439.559 24.1128 439.559 25.65H443.559C443.559 25.8362 443.493 26.0223 443.352 26.1764C443.187 26.3565 442.955 26.45 442.759 26.45V22.45ZM439.559 25.65V127.65H443.559V25.65H439.559ZM439.559 127.65C439.559 129.512 440.917 131.15 442.909 131.15V127.15C443.087 127.15 443.281 127.229 443.418 127.377C443.481 127.445 443.519 127.513 443.539 127.567C443.559 127.621 443.559 127.652 443.559 127.65H439.559ZM442.909 131.15H499.909V127.15H442.909V131.15ZM499.909 131.15C500.707 131.15 501.513 130.898 502.16 130.306C502.781 129.736 503.087 129.007 503.22 128.342L499.297 127.558C499.28 127.643 499.286 127.514 499.457 127.357C499.543 127.279 499.641 127.221 499.738 127.186C499.832 127.152 499.895 127.15 499.909 127.15V131.15ZM503.249 128.145L505.349 106.695L501.368 106.305L499.268 127.755L503.249 128.145ZM505.32 106.892C505.553 105.727 505.062 104.725 504.483 104.104C503.908 103.488 503.027 103 502.009 103V107C501.74 107 501.609 106.887 501.559 106.833C501.505 106.775 501.314 106.523 501.397 106.108L505.32 106.892ZM581.507 22H514.907V26H581.507V22ZM514.907 22C513.952 22 513.091 22.4026 512.499 23.1019C511.935 23.7678 511.707 24.5887 511.707 25.35H515.707C515.707 25.3613 515.704 25.5071 515.553 25.6856C515.475 25.7774 515.369 25.8626 515.239 25.9222C515.109 25.982 514.991 26 514.907 26V22ZM511.707 25.35V46.95H515.707V25.35H511.707ZM511.707 46.95C511.707 48.4872 512.892 50.15 514.907 50.15V46.15C515.104 46.15 515.335 46.2435 515.5 46.4235C515.641 46.5777 515.707 46.7638 515.707 46.95H511.707ZM514.907 50.15H533.657V46.15H514.907V50.15ZM533.657 50.15C533.302 50.15 533.007 49.8546 533.007 49.5H537.007C537.007 47.6454 535.512 46.15 533.657 46.15V50.15ZM533.007 49.5V127.65H537.007V49.5H533.007ZM533.007 127.65C533.007 129.187 534.192 130.85 536.207 130.85V126.85C536.404 126.85 536.635 126.943 536.8 127.124C536.941 127.278 537.007 127.464 537.007 127.65H533.007ZM536.207 130.85H560.357V126.85H536.207V130.85ZM560.357 130.85C562.372 130.85 563.557 129.187 563.557 127.65H559.557C559.557 127.464 559.623 127.278 559.764 127.124C559.929 126.943 560.16 126.85 560.357 126.85V130.85ZM563.557 127.65V49.5H559.557V127.65H563.557ZM563.557 49.5C563.557 49.8546 563.262 50.15 562.907 50.15V46.15C561.052 46.15 559.557 47.6454 559.557 49.5H563.557ZM562.907 50.15H581.507V46.15H562.907V50.15ZM581.507 50.15C583.208 50.15 584.857 48.8023 584.857 46.95H580.857C580.857 46.5872 581.024 46.3817 581.107 46.3054C581.205 46.2146 581.343 46.15 581.507 46.15V50.15ZM584.857 46.95V25.35H580.857V46.95H584.857ZM584.857 25.35C584.857 23.4954 583.362 22 581.507 22V26C581.152 26 580.857 25.7046 580.857 25.35H584.857ZM677.659 22.3H653.659V26.3H677.659V22.3ZM653.659 22.3C651.804 22.3 650.309 23.7954 650.309 25.65H654.309C654.309 26.0046 654.014 26.3 653.659 26.3V22.3ZM650.309 25.65V62.7H654.309V25.65H650.309ZM650.309 62.7C650.309 62.3454 650.604 62.05 650.959 62.05V66.05C652.814 66.05 654.309 64.5546 654.309 62.7H650.309ZM650.959 62.05H621.109V66.05H650.959V62.05ZM621.109 62.05C621.464 62.05 621.759 62.3454 621.759 62.7H617.759C617.759 64.5546 619.254 66.05 621.109 66.05V62.05ZM621.759 62.7V25.65H617.759V62.7H621.759ZM621.759 25.65C621.759 23.9492 620.411 22.3 618.559 22.3V26.3C618.196 26.3 617.991 26.133 617.914 26.0503C617.824 25.952 617.759 25.8138 617.759 25.65H621.759ZM618.559 22.3H594.409V26.3H618.559V22.3ZM594.409 22.3C593.454 22.3 592.593 22.7026 592.001 23.4019C591.437 24.0679 591.209 24.8887 591.209 25.65H595.209C595.209 25.6613 595.206 25.8071 595.055 25.9856C594.977 26.0774 594.871 26.1627 594.741 26.2222C594.611 26.282 594.493 26.3 594.409 26.3V22.3ZM591.209 25.65V127.8H595.209V25.65H591.209ZM591.209 127.8C591.209 129.337 592.394 131 594.409 131V127C594.606 127 594.837 127.093 595.002 127.274C595.143 127.428 595.209 127.614 595.209 127.8H591.209ZM594.409 131H618.559V127H594.409V131ZM618.559 131C619.509 131 620.292 130.545 620.798 130.039C621.304 129.534 621.759 128.75 621.759 127.8H617.759C617.759 127.45 617.914 127.266 617.97 127.211C618.025 127.155 618.208 127 618.559 127V131ZM621.759 127.8V89.25H617.759V127.8H621.759ZM621.759 89.25C621.759 89.3338 621.741 89.4524 621.681 89.5824C621.622 89.7118 621.536 89.8178 621.445 89.8955C621.266 90.0466 621.12 90.05 621.109 90.05V86.05C620.348 86.05 619.527 86.2784 618.861 86.842C618.162 87.4337 617.759 88.2952 617.759 89.25H621.759ZM621.109 90.05H650.959V86.05H621.109V90.05ZM650.959 90.05C650.948 90.05 650.802 90.0466 650.623 89.8955C650.532 89.8179 650.446 89.7118 650.387 89.5824C650.327 89.4524 650.309 89.3338 650.309 89.25H654.309C654.309 88.2952 653.906 87.4337 653.207 86.842C652.541 86.2784 651.72 86.05 650.959 86.05V90.05ZM650.309 89.25V127.8H654.309V89.25H650.309ZM650.309 127.8C650.309 129.652 651.958 131 653.659 131V127C653.823 127 653.961 127.065 654.059 127.155C654.142 127.232 654.309 127.437 654.309 127.8H650.309ZM653.659 131H677.659V127H653.659V131ZM677.659 131C679.36 131 681.009 129.652 681.009 127.8H677.009C677.009 127.437 677.176 127.232 677.259 127.155C677.357 127.065 677.495 127 677.659 127V131ZM681.009 127.8V25.65H677.009V127.8H681.009ZM681.009 25.65C681.009 23.7954 679.514 22.3 677.659 22.3V26.3C677.304 26.3 677.009 26.0046 677.009 25.65H681.009ZM742.08 19.3C711.226 19.3 686.38 44.996 686.38 76.35H690.38C690.38 47.104 713.535 23.3 742.08 23.3V19.3ZM686.38 76.35C686.38 107.85 711.222 133.55 742.08 133.55V129.55C713.538 129.55 690.38 105.75 690.38 76.35H686.38ZM742.08 133.55C772.931 133.55 797.93 107.858 797.93 76.35H793.93C793.93 105.742 770.629 129.55 742.08 129.55V133.55ZM797.93 76.35C797.93 44.9887 772.927 19.3 742.08 19.3V23.3C770.633 23.3 793.93 47.1113 793.93 76.35H797.93ZM742.08 104.5C727.03 104.5 714.68 91.9416 714.68 76.35H710.68C710.68 94.0584 724.73 108.5 742.08 108.5V104.5ZM714.68 76.35C714.68 60.9149 727.024 48.35 742.08 48.35V44.35C724.736 44.35 710.68 58.785 710.68 76.35H714.68ZM742.08 48.35C757.149 48.35 769.63 60.9283 769.63 76.35H773.63C773.63 58.7717 759.411 44.35 742.08 44.35V48.35ZM769.63 76.35C769.63 91.9282 757.143 104.5 742.08 104.5V108.5C759.417 108.5 773.63 94.0717 773.63 76.35H769.63ZM868.305 25.35H866.305V25.3586L866.305 25.3672L868.305 25.35ZM868.755 77.55H870.755V77.5414L870.755 77.5328L868.755 77.55ZM866.505 78.3L864.839 79.4072L864.858 79.4352L864.877 79.4625L866.505 78.3ZM830.805 24.6L832.47 23.4927L832.36 23.3267L832.219 23.1858L830.805 24.6ZM833.055 127.5H835.055V127.491L835.055 127.481L833.055 127.5ZM832.605 79.35H830.605V79.3593L830.605 79.3687L832.605 79.35ZM834.855 78.6L833.227 79.7625L833.229 79.7643L834.855 78.6ZM870.405 128.25L872.302 127.618L872.207 127.331L872.031 127.086L870.405 128.25ZM892.605 22.15H869.655V26.15H892.605V22.15ZM869.655 22.15C867.954 22.15 866.305 23.4977 866.305 25.35H870.305C870.305 25.7127 870.138 25.9183 870.055 25.9946C869.957 26.0854 869.818 26.15 869.655 26.15V22.15ZM866.305 25.3672L866.755 77.5672L870.755 77.5328L870.305 25.3328L866.305 25.3672ZM866.755 77.55C866.755 77.508 866.77 77.3788 866.875 77.2303C866.977 77.0869 867.127 76.976 867.301 76.9201C867.474 76.8647 867.658 76.8677 867.821 76.9237C867.992 76.9821 868.091 77.0803 868.132 77.1375L864.877 79.4625C865.738 80.668 867.193 81.1546 868.521 80.7298C869.866 80.2994 870.755 79.0432 870.755 77.55H866.755ZM868.17 77.1927L832.47 23.4927L829.139 25.7072L864.839 79.4072L868.17 77.1927ZM832.219 23.1858C831.951 22.9177 831.603 22.6371 831.148 22.4349C830.684 22.2288 830.213 22.15 829.755 22.15V26.15C829.756 26.15 829.729 26.15 829.683 26.1411C829.636 26.1318 829.58 26.1153 829.524 26.0901C829.406 26.0379 829.359 25.9823 829.391 26.0142L832.219 23.1858ZM829.755 22.15H808.755V26.15H829.755V22.15ZM808.755 22.15C807.979 22.15 807.123 22.3907 806.459 23.0545C805.795 23.7184 805.555 24.574 805.555 25.35H809.555C809.555 25.376 809.539 25.6316 809.288 25.883C809.036 26.1343 808.781 26.15 808.755 26.15V22.15ZM805.555 25.35V127.65H809.555V25.35H805.555ZM805.555 127.65C805.555 129.187 806.74 130.85 808.755 130.85V126.85C808.951 126.85 809.183 126.943 809.348 127.124C809.489 127.278 809.555 127.464 809.555 127.65H805.555ZM808.755 130.85H831.705V126.85H808.755V130.85ZM831.705 130.85C833.559 130.85 835.055 129.355 835.055 127.5H831.055C831.055 127.145 831.35 126.85 831.705 126.85V130.85ZM835.055 127.481L834.605 79.3313L830.605 79.3687L831.055 127.519L835.055 127.481ZM834.605 79.35C834.605 79.392 834.589 79.5212 834.484 79.6697C834.383 79.8131 834.232 79.924 834.058 79.9798C833.885 80.0352 833.701 80.0323 833.538 79.9763C833.368 79.9179 833.268 79.8196 833.227 79.7625L836.482 77.4375C835.621 76.232 834.166 75.7454 832.839 76.1702C831.494 76.6006 830.605 77.8568 830.605 79.35H834.605ZM833.229 79.7643L868.779 129.414L872.031 127.086L836.481 77.4357L833.229 79.7643ZM868.507 128.882C869.077 130.593 870.729 130.85 871.455 130.85V126.85C871.426 126.85 871.535 126.841 871.712 126.93C871.81 126.979 871.932 127.06 872.049 127.188C872.168 127.32 872.253 127.469 872.302 127.618L868.507 128.882ZM871.455 130.85H892.605V126.85H871.455V130.85ZM892.605 130.85C894.62 130.85 895.805 129.187 895.805 127.65H891.805C891.805 127.464 891.87 127.278 892.012 127.124C892.177 126.943 892.408 126.85 892.605 126.85V130.85ZM895.805 127.65V25.35H891.805V127.65H895.805ZM895.805 25.35C895.805 24.574 895.564 23.7184 894.9 23.0545C894.236 22.3907 893.381 22.15 892.605 22.15V26.15C892.579 26.15 892.323 26.1343 892.072 25.883C891.82 25.6316 891.805 25.376 891.805 25.35H895.805Z"
                  fill="#1D152C"/>
        </g>
        <g id="top">
            <path d="M89.3875 10.3H65.3875C64.6375 10.3 64.0375 10.9 64.0375 11.65V48.7C64.0375 49.45 63.4375 50.05 62.6875 50.05H32.8375C32.0875 50.05 31.4875 49.45 31.4875 48.7V11.65C31.4875 10.9 30.8875 10.3 30.2875 10.3H6.1375C5.3875 10.3 4.9375 10.9 4.9375 11.65V113.8C4.9375 114.4 5.3875 115 6.1375 115H30.2875C30.8875 115 31.4875 114.4 31.4875 113.8V75.25C31.4875 74.5 32.0875 74.05 32.8375 74.05H62.6875C63.4375 74.05 64.0375 74.5 64.0375 75.25V113.8C64.0375 114.4 64.6375 115 65.3875 115H89.3875C90.1375 115 90.7375 114.4 90.7375 113.8V11.65C90.7375 10.9 90.1375 10.3 89.3875 10.3ZM200.176 113.5L161.626 11.2C161.476 10.6 160.876 10.3 160.276 10.3H137.626C136.876 10.3 136.276 10.75 136.126 11.35L97.5762 113.5C97.2762 114.4 97.8762 115.3 98.7762 115.3H124.876C125.476 115.3 125.926 114.85 126.076 114.4L131.626 97.6C131.776 97.15 132.376 96.7 132.826 96.7H164.926C165.526 96.7 165.976 97.15 166.126 97.6L171.676 114.1C171.826 114.85 172.426 115.3 173.176 115.3H198.976C199.876 115.3 200.476 114.4 200.176 113.5ZM156.976 75.25H140.776C139.876 75.25 139.276 74.5 139.576 73.6L147.676 49.15C147.976 47.95 149.776 47.95 150.226 49.15L158.176 73.6C158.476 74.35 157.876 75.25 156.976 75.25ZM294.043 94.6L276.193 81.55C275.743 81.25 274.843 81.25 274.543 81.85C268.843 88.75 260.593 92.8 251.743 92.8C235.543 92.8 222.343 79.3 222.343 62.65C222.343 46.15 235.543 32.65 251.743 32.65C260.293 32.65 268.243 36.25 273.943 42.85C274.393 43.3 275.143 43.45 275.593 43L293.443 29.95C294.043 29.5 294.193 28.75 293.743 28.15C289.093 22.3 283.093 17.35 276.493 13.75C268.843 9.7 260.443 7.6 251.743 7.6C222.043 7.6 198.043 32.35 198.043 62.65C198.043 93.1 222.043 117.7 251.743 117.7C268.393 117.7 284.143 109.9 294.343 96.4C294.793 95.95 294.643 95.05 294.043 94.6ZM390.636 113.05L355.236 61.9C354.936 61.45 354.936 60.85 355.236 60.4L387.186 12.4C387.786 11.5 387.036 10.3 385.986 10.3H361.086C360.786 10.3 360.336 10.6 360.036 10.9L334.386 50.95C333.786 52.15 331.986 51.55 331.986 50.35V11.65C331.986 10.9 331.386 10.3 330.636 10.3H306.636C305.886 10.3 305.436 10.9 305.436 11.65V113.8C305.436 114.55 305.886 115 306.636 115H330.786C331.386 115 331.986 114.4 331.986 113.8V74.2C331.986 73 333.786 72.4 334.386 73.6L359.136 114.4C359.286 114.85 359.736 115 360.186 115H389.586C390.636 115 391.236 113.95 390.636 113.05ZM426.02 10.3H401.87C401.12 10.3 400.67 10.9 400.67 11.65V113.8C400.67 114.4 401.12 115 401.87 115H426.02C426.62 115 427.22 114.4 427.22 113.8V11.65C427.22 10.9 426.62 10.3 426.02 10.3ZM502.009 91H469.459C468.709 91 468.109 90.4 468.109 89.65V75.25C468.109 74.5 468.709 73.9 469.459 73.9H493.159C493.909 73.9 494.509 73.3 494.509 72.55V51.25C494.509 50.5 493.909 49.9 493.159 49.9H469.459C468.709 49.9 468.109 49.3 468.109 48.55V35.8C468.109 35.05 468.709 34.45 469.459 34.45H502.009C502.759 34.45 503.359 33.85 503.359 32.95L501.259 11.65C501.109 10.9 500.659 10.45 499.909 10.45H442.759C442.009 10.45 441.559 11.05 441.559 11.65V113.65C441.559 114.55 442.159 115.15 442.909 115.15H499.909C500.659 115.15 501.109 114.7 501.259 113.95L503.359 92.5C503.509 91.75 502.759 91 502.009 91Z"
                  fill="#949EF9"/>
            <path d="M581.507 9.99999H514.907C514.157 9.99999 513.707 10.6 513.707 11.35V32.95C513.707 33.55 514.157 34.15 514.907 34.15H533.657C534.407 34.15 535.007 34.75 535.007 35.5V113.65C535.007 114.25 535.457 114.85 536.207 114.85H560.357C561.107 114.85 561.557 114.25 561.557 113.65V35.5C561.557 34.75 562.157 34.15 562.907 34.15H581.507C582.257 34.15 582.857 33.55 582.857 32.95V11.35C582.857 10.6 582.257 9.99999 581.507 9.99999ZM677.659 10.3H653.659C652.909 10.3 652.309 10.9 652.309 11.65V48.7C652.309 49.45 651.709 50.05 650.959 50.05H621.109C620.359 50.05 619.759 49.45 619.759 48.7V11.65C619.759 10.9 619.159 10.3 618.559 10.3H594.409C593.659 10.3 593.209 10.9 593.209 11.65V113.8C593.209 114.4 593.659 115 594.409 115H618.559C619.159 115 619.759 114.4 619.759 113.8V75.25C619.759 74.5 620.359 74.05 621.109 74.05H650.959C651.709 74.05 652.309 74.5 652.309 75.25V113.8C652.309 114.4 652.909 115 653.659 115H677.659C678.409 115 679.009 114.4 679.009 113.8V11.65C679.009 10.9 678.409 10.3 677.659 10.3ZM742.08 7.29999C712.38 7.29999 688.38 32.05 688.38 62.35C688.38 92.8 712.38 117.55 742.08 117.55C771.78 117.55 795.93 92.8 795.93 62.35C795.93 32.05 771.78 7.29999 742.08 7.29999ZM742.08 92.5C725.88 92.5 712.68 79 712.68 62.35C712.68 45.85 725.88 32.35 742.08 32.35C758.28 32.35 771.63 45.85 771.63 62.35C771.63 79 758.28 92.5 742.08 92.5ZM892.605 10.15H869.655C868.905 10.15 868.305 10.75 868.305 11.35L868.755 63.55C868.755 64.9 867.255 65.35 866.505 64.3L830.805 10.6C830.505 10.3 830.205 10.15 829.755 10.15H808.755C808.005 10.15 807.555 10.6 807.555 11.35V113.65C807.555 114.25 808.005 114.85 808.755 114.85H831.705C832.455 114.85 833.055 114.25 833.055 113.5L832.605 65.35C832.605 64 834.105 63.55 834.855 64.6L870.405 114.25C870.555 114.7 871.005 114.85 871.455 114.85H892.605C893.355 114.85 893.805 114.25 893.805 113.65V11.35C893.805 10.6 893.355 10.15 892.605 10.15Z"
                  fill="#B9BDF0"/>
            <path d="M89.3875 8.3H65.3875V12.3H89.3875V8.3ZM65.3875 8.3C63.5329 8.3 62.0375 9.79543 62.0375 11.65H66.0375C66.0375 12.0046 65.7421 12.3 65.3875 12.3V8.3ZM62.0375 11.65V48.7H66.0375V11.65H62.0375ZM62.0375 48.7C62.0375 48.3454 62.3329 48.05 62.6875 48.05V52.05C64.5421 52.05 66.0375 50.5546 66.0375 48.7H62.0375ZM62.6875 48.05H32.8375V52.05H62.6875V48.05ZM32.8375 48.05C33.1921 48.05 33.4875 48.3454 33.4875 48.7H29.4875C29.4875 50.5546 30.9829 52.05 32.8375 52.05V48.05ZM33.4875 48.7V11.65H29.4875V48.7H33.4875ZM33.4875 11.65C33.4875 9.94917 32.1398 8.3 30.2875 8.3V12.3C29.9247 12.3 29.7192 12.133 29.6429 12.0503C29.5521 11.952 29.4875 11.8138 29.4875 11.65H33.4875ZM30.2875 8.3H6.1375V12.3H30.2875V8.3ZM6.1375 8.3C5.18266 8.3 4.32117 8.7026 3.72948 9.40187C3.16595 10.0679 2.9375 10.8887 2.9375 11.65H6.9375C6.9375 11.6613 6.93405 11.8071 6.78302 11.9856C6.70535 12.0774 6.59931 12.1627 6.46988 12.2222C6.33994 12.282 6.22135 12.3 6.1375 12.3V8.3ZM2.9375 11.65V113.8H6.9375V11.65H2.9375ZM2.9375 113.8C2.9375 115.337 4.12268 117 6.1375 117V113C6.33413 113 6.5655 113.093 6.73056 113.274C6.87188 113.428 6.9375 113.614 6.9375 113.8H2.9375ZM6.1375 117H30.2875V113H6.1375V117ZM30.2875 117C31.238 117 32.021 116.545 32.5267 116.039C33.0324 115.534 33.4875 114.75 33.4875 113.8H29.4875C29.4875 113.45 29.6426 113.266 29.6983 113.211C29.754 113.155 29.937 113 30.2875 113V117ZM33.4875 113.8V75.25H29.4875V113.8H33.4875ZM33.4875 75.25C33.4875 75.3338 33.4696 75.4524 33.4097 75.5824C33.3502 75.7118 33.2649 75.8178 33.1731 75.8955C32.9946 76.0466 32.8488 76.05 32.8375 76.05V72.05C32.0762 72.05 31.2554 72.2784 30.5894 72.842C29.8901 73.4337 29.4875 74.2952 29.4875 75.25H33.4875ZM32.8375 76.05H62.6875V72.05H32.8375V76.05ZM62.6875 76.05C62.6762 76.05 62.5304 76.0466 62.3519 75.8955C62.2601 75.8179 62.1749 75.7118 62.1153 75.5824C62.0555 75.4524 62.0375 75.3338 62.0375 75.25H66.0375C66.0375 74.2952 65.6349 73.4337 64.9356 72.842C64.2696 72.2784 63.4488 72.05 62.6875 72.05V76.05ZM62.0375 75.25V113.8H66.0375V75.25H62.0375ZM62.0375 113.8C62.0375 115.652 63.6867 117 65.3875 117V113C65.5513 113 65.6895 113.065 65.7878 113.155C65.8705 113.232 66.0375 113.437 66.0375 113.8H62.0375ZM65.3875 117H89.3875V113H65.3875V117ZM89.3875 117C91.0883 117 92.7375 115.652 92.7375 113.8H88.7375C88.7375 113.437 88.9045 113.232 88.9872 113.155C89.0856 113.065 89.2237 113 89.3875 113V117ZM92.7375 113.8V11.65H88.7375V113.8H92.7375ZM92.7375 11.65C92.7375 9.79543 91.2421 8.3 89.3875 8.3V12.3C89.0329 12.3 88.7375 12.0046 88.7375 11.65H92.7375ZM200.176 113.5L202.074 112.868L202.061 112.831L202.048 112.795L200.176 113.5ZM161.626 11.2L159.686 11.6851L159.714 11.7971L159.755 11.9052L161.626 11.2ZM136.126 11.35L137.997 12.0562L138.038 11.9476L138.066 11.8351L136.126 11.35ZM97.5762 113.5L95.705 112.794L95.6912 112.83L95.6788 112.868L97.5762 113.5ZM126.076 114.4L127.974 115.032L127.975 115.027L126.076 114.4ZM131.626 97.6L129.729 96.9675L129.727 96.9726L131.626 97.6ZM166.126 97.6L164.229 98.2325L164.231 98.2376L166.126 97.6ZM171.676 114.1L173.637 113.708L173.612 113.583L173.572 113.462L171.676 114.1ZM139.576 73.6L141.474 74.2324L141.475 74.229L139.576 73.6ZM147.676 49.15L149.575 49.779L149.598 49.7078L149.616 49.6351L147.676 49.15ZM150.226 49.15L152.128 48.5316L152.114 48.4893L152.099 48.4478L150.226 49.15ZM158.176 73.6L156.274 74.2184L156.295 74.2813L156.319 74.3428L158.176 73.6ZM202.048 112.795L163.498 10.4947L159.755 11.9052L198.305 114.205L202.048 112.795ZM163.566 10.7149C163.109 8.88616 161.391 8.3 160.276 8.3V12.3C160.261 12.3 160.187 12.2994 160.072 12.2283C159.933 12.1427 159.754 11.9589 159.686 11.6851L163.566 10.7149ZM160.276 8.3H137.626V12.3H160.276V8.3ZM137.626 8.3C136.107 8.3 134.593 9.23843 134.186 10.8649L138.066 11.8351C137.96 12.2616 137.646 12.3 137.626 12.3V8.3ZM134.255 10.6438L95.705 112.794L99.4474 114.206L137.997 12.0562L134.255 10.6438ZM95.6788 112.868C95.0005 114.903 96.3467 117.3 98.7762 117.3V113.3C99.0351 113.3 99.2672 113.444 99.3903 113.628C99.5086 113.806 99.5182 113.999 99.4735 114.132L95.6788 112.868ZM98.7762 117.3H124.876V113.3H98.7762V117.3ZM124.876 117.3C126.53 117.3 127.618 116.1 127.974 115.032L124.179 113.768C124.223 113.634 124.292 113.542 124.378 113.471C124.48 113.388 124.654 113.3 124.876 113.3V117.3ZM127.975 115.027L133.525 98.2274L129.727 96.9726L124.177 113.773L127.975 115.027ZM133.524 98.2325C133.47 98.3943 133.401 98.4869 133.375 98.5189C133.346 98.5557 133.325 98.5729 133.314 98.5812C133.303 98.5892 133.275 98.6092 133.219 98.6318C133.17 98.6514 133.034 98.7 132.826 98.7V94.7C132.01 94.7 131.332 95.0672 130.914 95.3812C130.484 95.7032 129.973 96.2343 129.729 96.9675L133.524 98.2325ZM132.826 98.7H164.926V94.7H132.826V98.7ZM164.926 98.7C164.704 98.7 164.53 98.6124 164.428 98.5292C164.342 98.4582 164.273 98.3656 164.229 98.2324L168.024 96.9676C167.668 95.8997 166.58 94.7 164.926 94.7V98.7ZM164.231 98.2376L169.781 114.738L173.572 113.462L168.022 96.9624L164.231 98.2376ZM169.715 114.492C170.066 116.246 171.545 117.3 173.176 117.3V113.3C173.205 113.3 173.313 113.312 173.437 113.409C173.568 113.511 173.624 113.639 173.637 113.708L169.715 114.492ZM173.176 117.3H198.976V113.3H173.176V117.3ZM198.976 117.3C201.406 117.3 202.752 114.903 202.074 112.868L198.279 114.132C198.234 113.999 198.244 113.806 198.362 113.628C198.485 113.444 198.717 113.3 198.976 113.3V117.3ZM156.976 73.25H140.776V77.25H156.976V73.25ZM140.776 73.25C140.891 73.25 141.136 73.3092 141.326 73.5625C141.529 73.8324 141.513 74.115 141.474 74.2324L137.679 72.9676C137.34 73.985 137.474 75.0926 138.126 75.9625C138.766 76.8158 139.761 77.25 140.776 77.25V73.25ZM141.475 74.229L149.575 49.779L145.778 48.521L137.678 72.971L141.475 74.229ZM149.616 49.6351C149.57 49.8204 149.444 50.0037 149.272 50.1226C149.119 50.2274 148.981 50.25 148.895 50.25C148.743 50.25 148.467 50.1543 148.354 49.8522L152.099 48.4478C151.536 46.9457 150.135 46.25 148.895 46.25C147.645 46.25 146.156 46.9848 145.736 48.6649L149.616 49.6351ZM148.324 49.7684L156.274 74.2184L160.078 72.9816L152.128 48.5316L148.324 49.7684ZM156.319 74.3428C156.185 74.0066 156.28 73.7112 156.392 73.5529C156.513 73.3823 156.727 73.25 156.976 73.25V77.25C159.198 77.25 160.893 75.0066 160.033 72.8572L156.319 74.3428ZM294.043 94.6L295.243 93L295.233 92.9927L295.223 92.9855L294.043 94.6ZM276.193 81.55L277.373 79.9355L277.338 79.9099L277.302 79.8859L276.193 81.55ZM274.543 81.85L276.085 83.1238L276.23 82.9482L276.332 82.7444L274.543 81.85ZM273.943 42.85L272.429 44.1572L272.477 44.2125L272.529 44.2642L273.943 42.85ZM275.593 43L274.413 41.3855L274.288 41.4766L274.179 41.5858L275.593 43ZM293.443 29.95L294.623 31.5645L294.633 31.5573L294.643 31.55L293.443 29.95ZM293.743 28.15L295.343 26.95L295.326 26.9275L295.309 26.9055L293.743 28.15ZM276.493 13.75L277.451 11.9942L277.44 11.9882L277.429 11.9824L276.493 13.75ZM294.343 96.4L292.929 94.9858L292.831 95.0838L292.747 95.1943L294.343 96.4ZM295.223 92.9855L277.373 79.9355L275.013 83.1645L292.863 96.2145L295.223 92.9855ZM277.302 79.8859C276.629 79.4369 275.801 79.2912 275.078 79.3762C274.329 79.4643 273.299 79.8655 272.754 80.9556L276.332 82.7444C276.087 83.2345 275.657 83.3357 275.545 83.3488C275.476 83.3569 275.419 83.3525 275.366 83.3411C275.319 83.3309 275.216 83.3024 275.084 83.2141L277.302 79.8859ZM273.001 80.5762C267.662 87.0389 259.968 90.8 251.743 90.8V94.8C261.218 94.8 270.024 90.4611 276.085 83.1238L273.001 80.5762ZM251.743 90.8C236.693 90.8 224.343 78.2416 224.343 62.65H220.343C220.343 80.3584 234.393 94.8 251.743 94.8V90.8ZM224.343 62.65C224.343 47.2149 236.687 34.65 251.743 34.65V30.65C234.399 30.65 220.343 45.0851 220.343 62.65H224.343ZM251.743 34.65C259.712 34.65 267.109 37.9971 272.429 44.1572L275.457 41.5428C269.377 34.5029 260.874 30.65 251.743 30.65V34.65ZM272.529 44.2642C273.051 44.786 273.754 45.1514 274.52 45.2471C275.313 45.3461 276.267 45.1543 277.007 44.4142L274.179 41.5858C274.469 41.2957 274.823 41.2538 275.016 41.2779C275.182 41.2986 275.285 41.364 275.357 41.4358L272.529 44.2642ZM276.773 44.6145L294.623 31.5645L292.263 28.3355L274.413 41.3855L276.773 44.6145ZM294.643 31.55C296.026 30.5126 296.529 28.5309 295.343 26.95L292.143 29.35C292.049 29.2242 291.974 29.005 292.017 28.7587C292.058 28.5281 292.179 28.3982 292.243 28.35L294.643 31.55ZM295.309 26.9055C290.484 20.8353 284.273 15.7155 277.451 11.9942L275.535 15.5058C281.913 18.9845 287.702 23.7647 292.177 29.3945L295.309 26.9055ZM277.429 11.9824C269.492 7.78039 260.77 5.6 251.743 5.6V9.6C260.115 9.6 268.194 11.6196 275.557 15.5176L277.429 11.9824ZM251.743 5.6C220.888 5.6 196.043 31.296 196.043 62.65H200.043C200.043 33.404 223.197 9.6 251.743 9.6V5.6ZM196.043 62.65C196.043 94.1575 220.892 119.7 251.743 119.7V115.7C223.194 115.7 200.043 92.0424 200.043 62.65H196.043ZM251.743 119.7C269.022 119.7 285.362 111.604 295.939 97.6057L292.747 95.1943C282.924 108.196 267.764 115.7 251.743 115.7V119.7ZM295.757 97.8142C296.555 97.0164 296.692 95.9646 296.56 95.1712C296.425 94.3624 295.983 93.5548 295.243 93L292.843 96.2C292.703 96.0952 292.636 95.9626 292.614 95.8288C292.594 95.7104 292.581 95.3336 292.929 94.9858L295.757 97.8142ZM390.636 113.05L392.3 111.941L392.29 111.926L392.28 111.912L390.636 113.05ZM355.236 61.9L353.571 63.0094L353.581 63.0239L353.591 63.0382L355.236 61.9ZM355.236 60.4L356.9 61.5094L356.9 61.5082L355.236 60.4ZM387.186 12.4L385.521 11.2906L385.521 11.2918L387.186 12.4ZM360.036 10.9L358.621 9.4858L358.468 9.63896L358.351 9.82135L360.036 10.9ZM334.386 50.95L332.701 49.8714L332.644 49.9607L332.597 50.0556L334.386 50.95ZM334.386 73.6L332.597 74.4944L332.633 74.5675L332.676 74.6373L334.386 73.6ZM359.136 114.4L361.033 113.768L360.962 113.555L360.846 113.363L359.136 114.4ZM392.28 111.912L356.88 60.7618L353.591 63.0382L388.991 114.188L392.28 111.912ZM356.9 60.7906C357.048 61.0124 357.048 61.2876 356.9 61.5094L353.571 59.2906C352.824 60.4124 352.824 61.8876 353.571 63.0094L356.9 60.7906ZM356.9 61.5082L388.85 13.5082L385.521 11.2918L353.571 59.2918L356.9 61.5082ZM388.85 13.5094C389.638 12.3264 389.5 10.9657 388.926 9.99503C388.365 9.04613 387.298 8.3 385.986 8.3V12.3C385.723 12.3 385.556 12.1539 385.482 12.03C385.44 11.9586 385.4 11.8518 385.399 11.7118C385.397 11.5605 385.443 11.4089 385.521 11.2906L388.85 13.5094ZM385.986 8.3H361.086V12.3H385.986V8.3ZM361.086 8.3C360.378 8.3 359.804 8.60882 359.532 8.77251C359.192 8.97642 358.877 9.2306 358.621 9.4858L361.45 12.3142C361.468 12.2964 361.493 12.2732 361.523 12.2494C361.554 12.2255 361.577 12.2098 361.59 12.2025C361.605 12.1932 361.585 12.2075 361.529 12.2282C361.499 12.2393 361.448 12.2558 361.38 12.2703C361.313 12.2845 361.212 12.3 361.086 12.3V8.3ZM358.351 9.82135L332.701 49.8714L336.07 52.0286L361.72 11.9786L358.351 9.82135ZM332.597 50.0556C332.671 49.9079 332.833 49.7408 333.063 49.6558C333.262 49.5821 333.421 49.6016 333.51 49.6269C333.622 49.659 333.986 49.8461 333.986 50.35H329.986C329.986 52.0539 331.249 53.141 332.411 53.473C333.655 53.8286 335.355 53.4836 336.174 51.8444L332.597 50.0556ZM333.986 50.35V11.65H329.986V50.35H333.986ZM333.986 11.65C333.986 9.79543 332.49 8.3 330.636 8.3V12.3C330.281 12.3 329.986 12.0046 329.986 11.65H333.986ZM330.636 8.3H306.636V12.3H330.636V8.3ZM306.636 8.3C305.681 8.3 304.819 8.7026 304.228 9.40187C303.664 10.0679 303.436 10.8887 303.436 11.65H307.436C307.436 11.6613 307.432 11.8071 307.281 11.9856C307.203 12.0774 307.097 12.1627 306.968 12.2222C306.838 12.282 306.719 12.3 306.636 12.3V8.3ZM303.436 11.65V113.8H307.436V11.65H303.436ZM303.436 113.8C303.436 114.576 303.676 115.432 304.34 116.095C305.004 116.759 305.86 117 306.636 117V113C306.662 113 306.917 113.016 307.169 113.267C307.42 113.518 307.436 113.774 307.436 113.8H303.436ZM306.636 117H330.786V113H306.636V117ZM330.786 117C331.736 117 332.519 116.545 333.025 116.039C333.53 115.534 333.986 114.75 333.986 113.8H329.986C329.986 113.45 330.141 113.266 330.196 113.211C330.252 113.155 330.435 113 330.786 113V117ZM333.986 113.8V74.2H329.986V113.8H333.986ZM333.986 74.2C333.986 74.7039 333.622 74.891 333.51 74.923C333.421 74.9484 333.262 74.9679 333.063 74.8942C332.833 74.8092 332.671 74.642 332.597 74.4944L336.174 72.7056C335.355 71.0664 333.655 70.7214 332.411 71.077C331.249 71.409 329.986 72.496 329.986 74.2H333.986ZM332.676 74.6373L357.426 115.437L360.846 113.363L336.096 72.5627L332.676 74.6373ZM357.238 115.032C357.808 116.743 359.46 117 360.186 117V113C360.157 113 360.265 112.991 360.442 113.08C360.541 113.129 360.663 113.21 360.779 113.338C360.899 113.47 360.984 113.619 361.033 113.768L357.238 115.032ZM360.186 117H389.586V113H360.186V117ZM389.586 117C390.81 117 391.91 116.366 392.482 115.326C393.062 114.272 392.997 112.986 392.3 111.941L388.971 114.159C388.874 114.014 388.81 113.703 388.977 113.399C389.136 113.109 389.411 113 389.586 113V117ZM426.02 8.3H401.87V12.3H426.02V8.3ZM401.87 8.3C400.915 8.3 400.054 8.7026 399.462 9.40187C398.898 10.0679 398.67 10.8887 398.67 11.65H402.67C402.67 11.6613 402.666 11.8071 402.515 11.9856C402.438 12.0774 402.332 12.1627 402.202 12.2222C402.072 12.282 401.954 12.3 401.87 12.3V8.3ZM398.67 11.65V113.8H402.67V11.65H398.67ZM398.67 113.8C398.67 115.337 399.855 117 401.87 117V113C402.067 113 402.298 113.093 402.463 113.274C402.604 113.428 402.67 113.614 402.67 113.8H398.67ZM401.87 117H426.02V113H401.87V117ZM426.02 117C426.97 117 427.753 116.545 428.259 116.039C428.765 115.534 429.22 114.75 429.22 113.8H425.22C425.22 113.45 425.375 113.266 425.431 113.211C425.486 113.155 425.669 113 426.02 113V117ZM429.22 113.8V11.65H425.22V113.8H429.22ZM429.22 11.65C429.22 9.94917 427.872 8.3 426.02 8.3V12.3C425.657 12.3 425.452 12.133 425.375 12.0503C425.285 11.952 425.22 11.8138 425.22 11.65H429.22ZM503.359 32.95H505.359V32.8516L505.349 32.7538L503.359 32.95ZM501.259 11.65L503.249 11.4538L503.239 11.355L503.22 11.2578L501.259 11.65ZM501.259 113.95L503.22 114.342L503.239 114.244L503.249 114.145L501.259 113.95ZM503.359 92.5L501.397 92.1078L501.378 92.2057L501.368 92.3051L503.359 92.5ZM502.009 89H469.459V93H502.009V89ZM469.459 89C469.813 89 470.109 89.2954 470.109 89.65H466.109C466.109 91.5046 467.604 93 469.459 93V89ZM470.109 89.65V75.25H466.109V89.65H470.109ZM470.109 75.25C470.109 75.6046 469.813 75.9 469.459 75.9V71.9C467.604 71.9 466.109 73.3954 466.109 75.25H470.109ZM469.459 75.9H493.159V71.9H469.459V75.9ZM493.159 75.9C495.013 75.9 496.509 74.4046 496.509 72.55H492.509C492.509 72.1954 492.804 71.9 493.159 71.9V75.9ZM496.509 72.55V51.25H492.509V72.55H496.509ZM496.509 51.25C496.509 49.3954 495.013 47.9 493.159 47.9V51.9C492.804 51.9 492.509 51.6046 492.509 51.25H496.509ZM493.159 47.9H469.459V51.9H493.159V47.9ZM469.459 47.9C469.813 47.9 470.109 48.1954 470.109 48.55H466.109C466.109 50.4046 467.604 51.9 469.459 51.9V47.9ZM470.109 48.55V35.8H466.109V48.55H470.109ZM470.109 35.8C470.109 36.1546 469.813 36.45 469.459 36.45V32.45C467.604 32.45 466.109 33.9454 466.109 35.8H470.109ZM469.459 36.45H502.009V32.45H469.459V36.45ZM502.009 36.45C504 36.45 505.359 34.8124 505.359 32.95H501.359C501.359 32.952 501.359 32.9209 501.379 32.8671C501.399 32.8132 501.436 32.7448 501.499 32.6766C501.636 32.5293 501.831 32.45 502.009 32.45V36.45ZM505.349 32.7538L503.249 11.4538L499.268 11.8462L501.368 33.1462L505.349 32.7538ZM503.22 11.2578C503.087 10.593 502.781 9.8639 502.16 9.29444C501.513 8.70154 500.707 8.45 499.909 8.45V12.45C499.895 12.45 499.832 12.4478 499.738 12.4142C499.641 12.3793 499.543 12.3213 499.457 12.2431C499.286 12.0861 499.28 11.957 499.297 12.0422L503.22 11.2578ZM499.909 8.45H442.759V12.45H499.909V8.45ZM442.759 8.45C440.744 8.45 439.559 10.1128 439.559 11.65H443.559C443.559 11.8362 443.493 12.0223 443.352 12.1764C443.187 12.3565 442.955 12.45 442.759 12.45V8.45ZM439.559 11.65V113.65H443.559V11.65H439.559ZM439.559 113.65C439.559 115.512 440.917 117.15 442.909 117.15V113.15C443.087 113.15 443.281 113.229 443.418 113.377C443.481 113.445 443.519 113.513 443.539 113.567C443.559 113.621 443.559 113.652 443.559 113.65H439.559ZM442.909 117.15H499.909V113.15H442.909V117.15ZM499.909 117.15C500.707 117.15 501.513 116.898 502.16 116.306C502.781 115.736 503.087 115.007 503.22 114.342L499.297 113.558C499.28 113.643 499.286 113.514 499.457 113.357C499.543 113.279 499.641 113.221 499.738 113.186C499.832 113.152 499.895 113.15 499.909 113.15V117.15ZM503.249 114.145L505.349 92.6949L501.368 92.3051L499.268 113.755L503.249 114.145ZM505.32 92.8922C505.553 91.7274 505.062 90.7248 504.483 90.1041C503.908 89.4878 503.027 89 502.009 89V93C501.74 93 501.609 92.8872 501.559 92.8334C501.505 92.7752 501.314 92.5226 501.397 92.1078L505.32 92.8922ZM581.507 7.99999H514.907V12H581.507V7.99999ZM514.907 7.99999C513.952 7.99999 513.091 8.40259 512.499 9.10186C511.935 9.76785 511.707 10.5887 511.707 11.35H515.707C515.707 11.3613 515.704 11.5071 515.553 11.6856C515.475 11.7774 515.369 11.8626 515.239 11.9222C515.109 11.982 514.991 12 514.907 12V7.99999ZM511.707 11.35V32.95H515.707V11.35H511.707ZM511.707 32.95C511.707 34.4872 512.892 36.15 514.907 36.15V32.15C515.104 32.15 515.335 32.2435 515.5 32.4235C515.641 32.5777 515.707 32.7638 515.707 32.95H511.707ZM514.907 36.15H533.657V32.15H514.907V36.15ZM533.657 36.15C533.302 36.15 533.007 35.8546 533.007 35.5H537.007C537.007 33.6454 535.512 32.15 533.657 32.15V36.15ZM533.007 35.5V113.65H537.007V35.5H533.007ZM533.007 113.65C533.007 115.187 534.192 116.85 536.207 116.85V112.85C536.404 112.85 536.635 112.943 536.8 113.124C536.941 113.278 537.007 113.464 537.007 113.65H533.007ZM536.207 116.85H560.357V112.85H536.207V116.85ZM560.357 116.85C562.372 116.85 563.557 115.187 563.557 113.65H559.557C559.557 113.464 559.623 113.278 559.764 113.124C559.929 112.943 560.16 112.85 560.357 112.85V116.85ZM563.557 113.65V35.5H559.557V113.65H563.557ZM563.557 35.5C563.557 35.8546 563.262 36.15 562.907 36.15V32.15C561.052 32.15 559.557 33.6454 559.557 35.5H563.557ZM562.907 36.15H581.507V32.15H562.907V36.15ZM581.507 36.15C583.208 36.15 584.857 34.8023 584.857 32.95H580.857C580.857 32.5872 581.024 32.3817 581.107 32.3054C581.205 32.2146 581.343 32.15 581.507 32.15V36.15ZM584.857 32.95V11.35H580.857V32.95H584.857ZM584.857 11.35C584.857 9.49542 583.362 7.99999 581.507 7.99999V12C581.152 12 580.857 11.7046 580.857 11.35H584.857ZM677.659 8.3H653.659V12.3H677.659V8.3ZM653.659 8.3C651.804 8.3 650.309 9.79543 650.309 11.65H654.309C654.309 12.0046 654.014 12.3 653.659 12.3V8.3ZM650.309 11.65V48.7H654.309V11.65H650.309ZM650.309 48.7C650.309 48.3454 650.604 48.05 650.959 48.05V52.05C652.814 52.05 654.309 50.5546 654.309 48.7H650.309ZM650.959 48.05H621.109V52.05H650.959V48.05ZM621.109 48.05C621.464 48.05 621.759 48.3454 621.759 48.7H617.759C617.759 50.5546 619.254 52.05 621.109 52.05V48.05ZM621.759 48.7V11.65H617.759V48.7H621.759ZM621.759 11.65C621.759 9.94917 620.411 8.3 618.559 8.3V12.3C618.196 12.3 617.991 12.133 617.914 12.0503C617.824 11.952 617.759 11.8138 617.759 11.65H621.759ZM618.559 8.3H594.409V12.3H618.559V8.3ZM594.409 8.3C593.454 8.3 592.593 8.7026 592.001 9.40187C591.437 10.0679 591.209 10.8887 591.209 11.65H595.209C595.209 11.6613 595.206 11.8071 595.055 11.9856C594.977 12.0774 594.871 12.1627 594.741 12.2222C594.611 12.282 594.493 12.3 594.409 12.3V8.3ZM591.209 11.65V113.8H595.209V11.65H591.209ZM591.209 113.8C591.209 115.337 592.394 117 594.409 117V113C594.606 113 594.837 113.093 595.002 113.274C595.143 113.428 595.209 113.614 595.209 113.8H591.209ZM594.409 117H618.559V113H594.409V117ZM618.559 117C619.509 117 620.292 116.545 620.798 116.039C621.304 115.534 621.759 114.75 621.759 113.8H617.759C617.759 113.45 617.914 113.266 617.97 113.211C618.025 113.155 618.208 113 618.559 113V117ZM621.759 113.8V75.25H617.759V113.8H621.759ZM621.759 75.25C621.759 75.3338 621.741 75.4524 621.681 75.5824C621.622 75.7118 621.536 75.8178 621.445 75.8955C621.266 76.0466 621.12 76.05 621.109 76.05V72.05C620.348 72.05 619.527 72.2784 618.861 72.842C618.162 73.4337 617.759 74.2952 617.759 75.25H621.759ZM621.109 76.05H650.959V72.05H621.109V76.05ZM650.959 76.05C650.948 76.05 650.802 76.0466 650.623 75.8955C650.532 75.8179 650.446 75.7118 650.387 75.5824C650.327 75.4524 650.309 75.3338 650.309 75.25H654.309C654.309 74.2952 653.906 73.4337 653.207 72.842C652.541 72.2784 651.72 72.05 650.959 72.05V76.05ZM650.309 75.25V113.8H654.309V75.25H650.309ZM650.309 113.8C650.309 115.652 651.958 117 653.659 117V113C653.823 113 653.961 113.065 654.059 113.155C654.142 113.232 654.309 113.437 654.309 113.8H650.309ZM653.659 117H677.659V113H653.659V117ZM677.659 117C679.36 117 681.009 115.652 681.009 113.8H677.009C677.009 113.437 677.176 113.232 677.259 113.155C677.357 113.065 677.495 113 677.659 113V117ZM681.009 113.8V11.65H677.009V113.8H681.009ZM681.009 11.65C681.009 9.79543 679.514 8.3 677.659 8.3V12.3C677.304 12.3 677.009 12.0046 677.009 11.65H681.009ZM742.08 5.29999C711.226 5.29999 686.38 30.996 686.38 62.35H690.38C690.38 33.104 713.535 9.29999 742.08 9.29999V5.29999ZM686.38 62.35C686.38 93.8504 711.222 119.55 742.08 119.55V115.55C713.538 115.55 690.38 91.7496 690.38 62.35H686.38ZM742.08 119.55C772.931 119.55 797.93 93.8577 797.93 62.35H793.93C793.93 91.7423 770.629 115.55 742.08 115.55V119.55ZM797.93 62.35C797.93 30.9887 772.927 5.29999 742.08 5.29999V9.29999C770.633 9.29999 793.93 33.1113 793.93 62.35H797.93ZM742.08 90.5C727.03 90.5 714.68 77.9416 714.68 62.35H710.68C710.68 80.0584 724.73 94.5 742.08 94.5V90.5ZM714.68 62.35C714.68 46.9149 727.024 34.35 742.08 34.35V30.35C724.736 30.35 710.68 44.785 710.68 62.35H714.68ZM742.08 34.35C757.149 34.35 769.63 46.9283 769.63 62.35H773.63C773.63 44.7717 759.411 30.35 742.08 30.35V34.35ZM769.63 62.35C769.63 77.9282 757.143 90.5 742.08 90.5V94.5C759.417 94.5 773.63 80.0717 773.63 62.35H769.63ZM868.305 11.35H866.305V11.3586L866.305 11.3672L868.305 11.35ZM868.755 63.55H870.755V63.5414L870.755 63.5328L868.755 63.55ZM866.505 64.3L864.839 65.4072L864.858 65.4352L864.877 65.4625L866.505 64.3ZM830.805 10.6L832.47 9.49274L832.36 9.32673L832.219 9.18577L830.805 10.6ZM833.055 113.5H835.055V113.491L835.055 113.481L833.055 113.5ZM832.605 65.35H830.605V65.3593L830.605 65.3687L832.605 65.35ZM834.855 64.6L833.227 65.7625L833.229 65.7643L834.855 64.6ZM870.405 114.25L872.302 113.618L872.207 113.331L872.031 113.086L870.405 114.25ZM892.605 8.14999H869.655V12.15H892.605V8.14999ZM869.655 8.14999C867.954 8.14999 866.305 9.49771 866.305 11.35H870.305C870.305 11.7127 870.138 11.9183 870.055 11.9946C869.957 12.0854 869.818 12.15 869.655 12.15V8.14999ZM866.305 11.3672L866.755 63.5672L870.755 63.5328L870.305 11.3328L866.305 11.3672ZM866.755 63.55C866.755 63.508 866.77 63.3788 866.875 63.2303C866.977 63.0869 867.127 62.976 867.301 62.9201C867.474 62.8647 867.658 62.8677 867.821 62.9237C867.992 62.9821 868.091 63.0803 868.132 63.1375L864.877 65.4625C865.738 66.668 867.193 67.1546 868.521 66.7298C869.866 66.2994 870.755 65.0432 870.755 63.55H866.755ZM868.17 63.1927L832.47 9.49274L829.139 11.7072L864.839 65.4072L868.17 63.1927ZM832.219 9.18577C831.951 8.91772 831.603 8.63713 831.148 8.43488C830.684 8.22875 830.213 8.14999 829.755 8.14999V12.15C829.756 12.15 829.729 12.15 829.683 12.1411C829.636 12.1318 829.58 12.1153 829.524 12.0901C829.406 12.0379 829.359 11.9823 829.391 12.0142L832.219 9.18577ZM829.755 8.14999H808.755V12.15H829.755V8.14999ZM808.755 8.14999C807.979 8.14999 807.123 8.39066 806.459 9.05453C805.795 9.7184 805.555 10.574 805.555 11.35H809.555C809.555 11.376 809.539 11.6316 809.288 11.883C809.036 12.1343 808.781 12.15 808.755 12.15V8.14999ZM805.555 11.35V113.65H809.555V11.35H805.555ZM805.555 113.65C805.555 115.187 806.74 116.85 808.755 116.85V112.85C808.951 112.85 809.183 112.943 809.348 113.124C809.489 113.278 809.555 113.464 809.555 113.65H805.555ZM808.755 116.85H831.705V112.85H808.755V116.85ZM831.705 116.85C833.559 116.85 835.055 115.355 835.055 113.5H831.055C831.055 113.145 831.35 112.85 831.705 112.85V116.85ZM835.055 113.481L834.605 65.3313L830.605 65.3687L831.055 113.519L835.055 113.481ZM834.605 65.35C834.605 65.392 834.589 65.5212 834.484 65.6697C834.383 65.8131 834.232 65.924 834.058 65.9798C833.885 66.0352 833.701 66.0323 833.538 65.9763C833.368 65.9179 833.268 65.8196 833.227 65.7625L836.482 63.4375C835.621 62.232 834.166 61.7454 832.839 62.1702C831.494 62.6006 830.605 63.8568 830.605 65.35H834.605ZM833.229 65.7643L868.779 115.414L872.031 113.086L836.481 63.4357L833.229 65.7643ZM868.507 114.882C869.077 116.593 870.729 116.85 871.455 116.85V112.85C871.426 112.85 871.535 112.841 871.712 112.93C871.81 112.979 871.932 113.06 872.049 113.188C872.168 113.32 872.253 113.469 872.302 113.618L868.507 114.882ZM871.455 116.85H892.605V112.85H871.455V116.85ZM892.605 116.85C894.62 116.85 895.805 115.187 895.805 113.65H891.805C891.805 113.464 891.87 113.278 892.012 113.124C892.177 112.943 892.408 112.85 892.605 112.85V116.85ZM895.805 113.65V11.35H891.805V113.65H895.805ZM895.805 11.35C895.805 10.574 895.564 9.71841 894.9 9.05453C894.236 8.39066 893.381 8.14999 892.605 8.14999V12.15C892.579 12.15 892.323 12.1343 892.072 11.883C891.82 11.6316 891.805 11.376 891.805 11.35H895.805Z"
                  fill="#1D152C"/>
        </g>
    </g>
</svg>
