<svg width="152" height="147" viewBox="0 0 152 147" fill="none" xmlns="http://www.w3.org/2000/svg">
    <style>
        @keyframes grow {
        0% {
        transform: scale(0.2) rotate(-100deg);
        }
        100% {
        transform: scale(1) rotate(0deg);
        }
        }
        #rocket {
        transform-origin: center;
        animation: grow 2s ease-in-out;
        }
    </style>
    <g id="rocket">
        <path id="Vector"
              d="M65.5707 144.281L65.5552 144.277L65.5733 144.287C68.2597 145.695 69.9868 146.268 71.4502 145.893C72.9136 145.518 74.1118 144.197 75.7416 141.822C77.1107 139.827 78.461 137.814 79.8119 135.8C84.4394 128.901 89.0758 121.988 94.5136 115.764C97.4811 112.368 100.18 109.185 101.204 105.778C101.717 104.074 101.811 102.313 101.31 100.442C100.81 98.5714 99.7174 96.5901 97.8563 94.4431C98.6711 94.0097 99.4125 93.6179 100.105 93.2521C101.492 92.519 102.681 91.8906 103.865 91.2426C119.738 82.5544 131.747 71.6401 139.671 58.3823C147.595 45.1245 151.434 29.5235 150.967 11.4621C150.905 9.08447 150.829 7.26907 150.596 5.87788C150.363 4.48664 149.972 3.51888 149.279 2.83708C148.587 2.1553 147.594 1.76016 146.157 1.51258C144.721 1.26501 142.841 1.1649 140.373 1.07377C105.502 -0.207662 79.1738 14.1534 61.2548 43.6042C60.2275 45.2942 59.2774 47.0198 58.2965 48.8012C57.8292 49.6499 57.3549 50.5114 56.8619 51.3877C56.1437 51.0051 55.4556 50.6324 54.7867 50.2701C53.2169 49.4198 51.7531 48.627 50.2563 47.8993C48.3004 46.9438 46.7889 46.2553 45.5195 45.8458C44.2501 45.4363 43.2225 45.3056 42.2343 45.4659C41.2462 45.6262 40.2981 46.0775 39.1876 46.8309C38.0771 47.5843 36.8039 48.6401 35.1656 50.0098C25.2398 58.3165 15.0443 66.336 4.669 74.0794C4.59806 74.1323 4.52727 74.1849 4.45672 74.2374C3.25319 75.1332 2.11946 75.977 1.49505 76.9209C1.16442 77.4207 0.976391 77.9488 0.996459 78.5278C1.01652 79.1067 1.24464 79.7359 1.74526 80.4379C2.25774 81.1573 3.38041 81.7459 4.6046 82.0871C5.82892 82.4282 7.15639 82.5224 8.07941 82.2514C11.0504 81.3821 13.9443 80.2455 16.8356 79.1099C17.0678 79.0188 17.2999 78.9276 17.5321 78.8365C20.6557 77.6118 23.7832 76.4134 27.0091 75.5795C32.3502 74.2076 37.98 73.8527 43.5338 73.5027C43.8821 73.4807 44.2301 73.4588 44.5778 73.4366C44.8686 73.4174 45.1682 73.5239 45.4739 73.7109C45.7796 73.8979 46.0909 74.1651 46.4049 74.4667C46.6358 74.6886 46.8681 74.9289 47.1006 75.1695C47.1841 75.2559 47.2677 75.3424 47.3513 75.4281C47.6653 75.7501 47.979 76.0605 48.2893 76.3139C47.8413 76.5555 47.3986 76.8534 46.9565 77.151C46.7018 77.3224 46.4473 77.4936 46.1921 77.654C45.4911 78.0944 44.7838 78.4528 44.0488 78.5079C39.8896 78.8338 37.3 79.3502 35.4482 80.7513C33.5963 82.1525 32.483 84.4377 31.2746 88.2984C30.5551 90.5741 29.9369 92.905 29.431 95.2359C26.2611 109.75 21.0792 123.458 12.7389 135.917L12.743 135.92L12.7472 135.923L12.7485 135.924C16.4586 134.897 20.1543 133.696 23.8555 132.494C25.805 131.861 27.7559 131.228 29.7113 130.619C35.3809 128.853 41.0882 127.293 46.905 126.547C53.7739 125.669 59.1087 123.594 63.1157 120.142C67.1227 116.689 69.8013 111.858 71.3583 105.467C71.5041 104.872 71.9108 104.34 72.3885 103.823C72.5625 103.635 72.746 103.449 72.9296 103.263C73.2486 102.939 73.5681 102.616 73.839 102.28C74.4661 102.61 75.082 102.94 75.6979 103.27C72.326 116.922 68.954 130.574 65.5707 144.281Z"
              fill="#6183E7" stroke="#1D152C" stroke-width="0.01"/>
        <path id="Vector_2"
              d="M64.7946 133.636L64.7795 133.633L64.7971 133.642C66.9104 134.759 68.2695 135.213 69.4211 134.916C70.5728 134.619 71.5155 133.57 72.7976 131.687C73.8747 130.105 74.9369 128.508 75.9996 126.911C79.6399 121.439 83.2872 115.957 87.5649 111.021C89.8992 108.327 92.0223 105.803 92.8285 103.1C93.2317 101.748 93.3055 100.352 92.9119 98.8673C92.5186 97.384 91.6589 95.8129 90.1953 94.1103C90.8355 93.767 91.4181 93.4566 91.962 93.1668C93.0536 92.5852 93.9892 92.0867 94.9208 91.5726C107.408 84.6819 116.855 76.0256 123.088 65.5106C129.322 54.9957 132.342 42.6222 131.975 28.2975C131.927 26.4118 131.867 24.9719 131.683 23.8685C131.5 22.765 131.192 21.9972 130.647 21.4563C130.102 20.9153 129.321 20.6019 128.191 20.4055C127.061 20.2091 125.581 20.1297 123.64 20.0575C109.924 19.5493 97.8881 22.1427 87.5189 27.7829C77.1497 33.4232 68.4477 42.1102 61.3995 53.789C60.5914 55.1294 59.8439 56.4979 59.0723 57.9107C58.7049 58.5836 58.3319 59.2665 57.9443 59.9612C57.3796 59.658 56.8386 59.3626 56.3127 59.0754C55.0778 58.401 53.9263 57.7722 52.7488 57.1951C51.2101 56.4373 50.021 55.8912 49.0224 55.5664C48.0236 55.2415 47.2151 55.1378 46.4375 55.265C45.66 55.3922 44.914 55.7502 44.0403 56.3478C43.1667 56.9454 42.165 57.7828 40.8762 58.869C33.068 65.4571 25.0476 71.8174 16.8856 77.9587C16.8298 78.0007 16.7741 78.0425 16.7186 78.0841C15.7719 78.7945 14.8798 79.4638 14.3885 80.2126C14.1284 80.6091 13.9804 81.0281 13.9961 81.4876C14.0119 81.947 14.1915 82.4462 14.5854 83.003C14.9888 83.5739 15.8722 84.0408 16.8353 84.3114C17.7986 84.582 18.8431 84.6567 19.5694 84.4417C21.9067 83.7523 24.1833 82.8508 26.4578 81.9502C26.6404 81.8779 26.823 81.8056 27.0056 81.7334C29.4629 80.762 31.9232 79.8116 34.4607 79.1502C38.6623 78.0622 43.0909 77.7808 47.4599 77.5032C47.7339 77.4858 48.0077 77.4684 48.2812 77.4508C48.5097 77.4355 48.7452 77.5199 48.9856 77.6681C49.226 77.8163 49.4708 78.0282 49.7177 78.2674C49.8994 78.4434 50.0822 78.6341 50.2651 78.8249C50.3308 78.8934 50.3965 78.962 50.4622 79.0299C50.7089 79.2849 50.9553 79.5307 51.199 79.7315C50.847 79.9231 50.4992 80.1591 50.1518 80.3948C49.9514 80.5307 49.7513 80.6665 49.5505 80.7937C48.9991 81.1429 48.4428 81.4271 47.8649 81.4708C44.5931 81.7292 42.5556 82.1388 41.0986 83.2502C39.6414 84.3617 38.7656 86.1744 37.815 89.2364C37.249 91.0412 36.7626 92.8899 36.3647 94.7386C33.8711 106.25 29.7947 117.121 23.2337 127.003L23.2378 127.006L23.242 127.008L23.2433 127.009C26.1616 126.195 29.0686 125.243 31.98 124.29C33.5136 123.788 35.0483 123.285 36.5866 122.802C41.0466 121.401 45.5363 120.164 50.1121 119.573C55.5157 118.876 59.7127 117.231 62.8651 114.492C66.0174 111.754 68.1247 107.922 69.3496 102.853C69.4642 102.382 69.784 101.96 70.1597 101.55C70.2966 101.401 70.4409 101.253 70.5854 101.106C70.8362 100.849 71.0873 100.593 71.3003 100.327C71.7931 100.588 72.2771 100.85 72.7612 101.111L72.7539 101.141C70.1037 111.958 67.4536 122.775 64.7946 133.636Z"
              fill="#949EF9" stroke="#1D152C" stroke-width="0.01"/>
    </g>
</svg>
