<svg width="2149" height="1080" viewBox="0 0 2149 1080" fill="none" xmlns="http://www.w3.org/2000/svg">
    <style>
        /* Animate large star to rotate */
        @keyframes rotate {
        from { transform: rotate(0deg); }
        to { transform: rotate(30deg); }
        }
        #big_star {
        animation: rotate 3s ease-in-out infinite;
        animation-direction: alternate;
        transform-origin: center;
        transform-box: fill-box;
        }
    </style>
    <g id="Large objects">
        <path id="Star 11"
              d="M1906.85 1098.93L1901.56 1069.71C1900.9 1066.03 1895.89 1065.38 1894.08 1068.74L1879.64 1095.42C1879.22 1096.18 1878.38 1096.61 1877.53 1096.49L1845.21 1091.93C1841.21 1091.36 1838.81 1096.39 1841.87 1098.95L1865.02 1118.29C1865.74 1118.9 1865.92 1119.94 1865.43 1120.78L1850.76 1146.13C1848.79 1149.54 1852.31 1153.3 1855.88 1151.6L1885.53 1137.48C1886.27 1137.13 1887.13 1137.24 1887.72 1137.76L1911.62 1158.81C1914.49 1161.34 1919.07 1158.62 1918.28 1154.86L1912.34 1126.84C1912.14 1125.92 1912.64 1124.96 1913.53 1124.56L1941.93 1111.88C1945.67 1110.2 1944.99 1104.78 1940.97 1104.31L1908.53 1100.5C1907.68 1100.4 1907 1099.77 1906.85 1098.93Z"
              fill="#618FC6" stroke="#2869DE" stroke-width="2"/>
        <path id="Star 12"
              d="M2062.12 522.243V521.245L2048.5 520.532C2040.57 520.117 2034.24 513.782 2033.83 505.856L2033.11 492.105H2032.11L2031.4 505.856C2030.99 513.782 2024.66 520.117 2016.73 520.532L2003.11 521.245V522.243L2016.73 522.956C2024.66 523.371 2030.99 529.706 2031.4 537.632L2032.11 551.383H2033.11L2033.83 537.632C2034.24 529.706 2040.57 523.371 2048.5 522.956L2062.12 522.243Z"
              fill="#F2EAD5" stroke="#663DB5"/>
        <path id="Star 13"
              d="M1397.04 930.658L1397.49 923.089L1397.95 930.658C1398.45 939.086 1405.23 945.775 1413.67 946.158L1423.02 946.583L1413.67 947.008C1405.23 947.392 1398.45 954.081 1397.95 962.509L1397.49 970.078L1397.04 962.509C1396.54 954.081 1389.76 947.392 1381.32 947.008L1371.97 946.583L1381.32 946.158C1389.76 945.775 1396.54 939.086 1397.04 930.658Z"
              fill="#9B32AB" stroke="white"/>
        <g id="connected stars">
            <path id="Vector 1" d="M535.5 123.101L698.286 194.857" stroke="#D9D9D9" stroke-dasharray="8 8"/>
            <path id="Star 14"
                  d="M515.377 80.9677L521.6 95.9116C521.991 96.8508 522.772 97.5733 523.738 97.891L539.495 103.072C541.787 103.826 541.787 107.068 539.495 107.822L523.738 113.003C522.772 113.32 521.991 114.043 521.6 114.982L515.377 129.926C514.523 131.978 511.616 131.978 510.761 129.926L504.538 114.982C504.147 114.043 503.367 113.32 502.401 113.003L486.644 107.822C484.352 107.068 484.352 103.826 486.644 103.072L502.401 97.891C503.367 97.5733 504.147 96.8508 504.538 95.9116L510.761 80.9677C511.616 78.9158 514.523 78.9158 515.377 80.9677Z"
                  fill="#C3BFF3" stroke="#D9D9D9"/>
            <path id="Star 3"
                  d="M731.997 184.615L738.22 199.559C738.611 200.498 739.392 201.22 740.358 201.538L756.115 206.719C758.407 207.473 758.407 210.715 756.115 211.469L740.358 216.65C739.392 216.968 738.611 217.69 738.22 218.629L731.997 233.573C731.143 235.625 728.236 235.625 727.381 233.573L721.158 218.629C720.767 217.69 719.987 216.968 719.021 216.65L703.264 211.469C700.972 210.715 700.972 207.473 703.264 206.719L719.021 201.538C719.987 201.22 720.767 200.498 721.158 199.559L727.381 184.615C728.236 182.563 731.143 182.563 731.997 184.615Z"
                  fill="#C3BFF3" stroke="#D9D9D9"/>
        </g>
        <g id="Star 16" filter="url(#filter0_d_80_66)">
            <path d="M1900.9 345.795C1899.67 343.418 1902.43 340.964 1905.1 342.057L1920.92 348.518C1921.76 348.862 1922.73 348.862 1923.57 348.518L1939.38 342.057C1942.05 340.964 1944.82 343.418 1943.59 345.795L1936.31 359.846C1935.93 360.594 1935.93 361.454 1936.31 362.201L1943.59 376.252C1944.82 378.629 1942.05 381.083 1939.38 379.99L1923.57 373.529C1922.73 373.185 1921.76 373.185 1920.92 373.529L1905.1 379.99C1902.43 381.083 1899.67 378.629 1900.9 376.252L1908.17 362.201C1908.56 361.454 1908.56 360.594 1908.17 359.846L1900.9 345.795Z"
                  fill="#9B32AB"/>
            <path d="M1904.88 342.484L1920.7 348.945C1921.68 349.346 1922.81 349.346 1923.79 348.945L1939.6 342.484C1941.83 341.573 1944.13 343.618 1943.11 345.599L1935.83 359.65C1935.38 360.522 1935.38 361.525 1935.83 362.397L1943.11 376.448C1944.13 378.429 1941.83 380.474 1939.6 379.563L1923.79 373.102C1922.81 372.701 1921.68 372.701 1920.7 373.102L1904.88 379.563C1902.65 380.474 1900.35 378.429 1901.38 376.448L1908.65 362.397C1909.1 361.525 1909.1 360.522 1908.65 359.65L1901.38 345.599C1900.35 343.618 1902.65 341.573 1904.88 342.484Z"
                  stroke="#D9D9D9"/>
        </g>
        <path id="Star 7"
              d="M763.552 847.639L765.861 852.841C766.941 855.275 769.099 857.182 771.799 858.128L777.653 860.18C781.691 861.595 783.665 864.813 783.665 867.994C783.665 871.175 781.691 874.393 777.653 875.808L771.799 877.86C769.099 878.806 766.941 880.713 765.861 883.147L763.552 888.348C761.981 891.887 758.362 893.69 754.684 893.69C751.006 893.69 747.387 891.887 745.816 888.348L743.507 883.147C742.427 880.713 740.269 878.806 737.569 877.86L731.715 875.808C727.677 874.393 725.703 871.175 725.703 867.994C725.703 864.813 727.677 861.595 731.715 860.18L737.569 858.128C740.269 857.182 742.427 855.275 743.507 852.841L745.816 847.639C747.387 844.1 751.006 842.297 754.684 842.297C758.362 842.297 761.981 844.1 763.552 847.639Z"
              stroke="#F2EAD5"/>
        <path id="Star 9"
              d="M762.558 -89.958L752.485 -58.6083C751.766 -56.3704 749.089 -55.4634 747.158 -56.8031L718.069 -76.9813C716.017 -78.4045 713.377 -76.2718 714.336 -73.9666L726.515 -44.7061C727.493 -42.3544 725.712 -39.7781 723.166 -39.8632L687.656 -41.0498C685.069 -41.1363 684.072 -37.7171 686.3 -36.3995L714.978 -19.4364C717.269 -18.0814 717.269 -14.7665 714.978 -13.4115L686.3 3.55153C684.072 4.86916 685.069 8.28835 687.656 8.2019L723.166 7.01524C725.712 6.93016 727.493 9.50644 726.515 11.8582L714.336 41.1186C713.377 43.4239 716.017 45.5566 718.069 44.1334L747.158 23.9552C749.089 22.6154 751.766 23.5225 752.485 25.7603L762.558 57.1101C763.301 59.4237 766.575 59.4237 767.318 57.1101L777.391 25.7603C778.111 23.5225 780.787 22.6154 782.719 23.9552L811.807 44.1334C813.859 45.5566 816.5 43.4239 815.54 41.1186L803.362 11.8582C802.383 9.50644 804.164 6.93016 806.71 7.01524L842.22 8.2019C844.807 8.28835 845.804 4.86917 843.577 3.55153L814.898 -13.4115C812.607 -14.7665 812.607 -18.0814 814.898 -19.4364L843.577 -36.3995C845.804 -37.7171 844.807 -41.1363 842.22 -41.0498L806.71 -39.8632C804.164 -39.7781 802.383 -42.3544 803.362 -44.7061L815.54 -73.9665C816.5 -76.2718 813.859 -78.4045 811.807 -76.9813L782.719 -56.8031C780.787 -55.4634 778.111 -56.3704 777.391 -58.6083L767.318 -89.958C766.575 -92.2717 763.301 -92.2717 762.558 -89.958Z"
              fill="url(#paint0_linear_80_66)" stroke="#D9D9D9"/>
        <path id="Ellipse 1"
              d="M311.971 159.548C311.971 167.396 304.792 173.855 295.808 173.855C286.825 173.855 279.645 167.396 279.645 159.548C279.645 151.701 286.825 145.242 295.808 145.242C304.792 145.242 311.971 151.701 311.971 159.548Z"
              stroke="#F2EAD5"/>
        <path id="Ellipse 17"
              d="M562.418 818.426C558.531 805.312 567.336 791.796 582.222 788.312C597.107 784.829 612.263 792.737 616.149 805.851C620.036 818.964 611.232 832.48 596.346 835.964C581.46 839.448 566.305 831.54 562.418 818.426Z"
              fill="#678385" stroke="white"/>
        <path id="Ellipse 3"
              d="M405.541 1071.87C405.541 1079.72 398.362 1086.18 389.378 1086.18C380.394 1086.18 373.215 1079.72 373.215 1071.87C373.215 1064.02 380.394 1057.56 389.378 1057.56C398.362 1057.56 405.541 1064.02 405.541 1071.87Z"
              stroke="#663DB5"/>
        <path id="Ellipse 4"
              d="M1671.94 144.742C1671.94 152.589 1664.76 159.048 1655.77 159.048C1646.79 159.048 1639.61 152.589 1639.61 144.742C1639.61 136.894 1646.79 130.435 1655.77 130.435C1664.76 130.435 1671.94 136.894 1671.94 144.742Z"
              stroke="#D9D9D9"/>
        <ellipse id="Ellipse 11" cx="333.621" cy="562.178" rx="9.61332" ry="8.54235" fill="#D9D9D9"/>
        <ellipse id="Ellipse 12" cx="1662.82" cy="220.484" rx="9.61332" ry="8.54235" fill="#F2EAD5"/>
        <path id="Ellipse 13"
              d="M1243.82 930.068C1243.82 934.456 1239.8 938.111 1234.71 938.111C1229.62 938.111 1225.6 934.456 1225.6 930.068C1225.6 925.68 1229.62 922.026 1234.71 922.026C1239.8 922.026 1243.82 925.68 1243.82 930.068Z"
              stroke="#D9D9D9"/>
        <g id="Star 5" filter="url(#filter1_d_80_66)">
            <path d="M742.29 978.824C739.03 967.734 754.839 962.18 760.995 972.252L800.561 1036.99C803.978 1042.57 811.847 1043.96 816.591 1039.81L872.788 990.636C881.486 983.026 895.206 994.226 888.685 1003.61L849.305 1060.3C845.449 1065.85 848.927 1073.67 856.012 1075.37L928.37 1092.81C940.352 1095.69 938.961 1112.2 926.758 1111.93L847.911 1110.2C841.255 1110.06 836.581 1115.85 838.39 1122L859.338 1193.28C862.598 1204.37 846.789 1209.92 840.633 1199.85L801.067 1135.12C797.65 1129.53 789.781 1128.14 785.037 1132.29L728.839 1181.47C720.142 1189.08 706.422 1177.88 712.943 1168.49L752.323 1111.8C756.179 1106.25 752.701 1098.43 745.616 1096.73L673.258 1079.3C661.276 1076.41 662.667 1059.9 674.87 1060.17L753.717 1061.9C760.373 1062.05 765.047 1056.25 763.238 1050.1L742.29 978.824Z"
                  fill="#EE8DB9"/>
            <path d="M802.325 1036.09L762.759 971.355C755.371 959.268 736.401 965.933 740.312 979.241L761.261 1050.51C762.708 1055.44 758.968 1060.07 753.644 1059.96L674.797 1058.23C660.154 1057.9 658.484 1077.72 672.862 1081.18L745.22 1098.61C750.888 1099.98 753.671 1106.23 750.586 1110.67L711.206 1167.36C703.381 1178.62 719.845 1192.06 730.282 1182.93L786.479 1133.75C790.274 1130.43 796.57 1131.54 799.303 1136.01L838.869 1200.75C846.256 1212.83 865.227 1206.17 861.316 1192.86L840.367 1121.59C838.92 1116.66 842.66 1112.03 847.984 1112.15L926.831 1113.88C941.474 1114.2 943.144 1094.39 928.765 1090.92L856.408 1073.49C850.74 1072.13 847.957 1065.87 851.042 1061.43L890.422 1004.75C898.247 993.481 881.783 980.041 871.346 989.174L815.148 1038.35C811.353 1041.67 805.058 1040.56 802.325 1036.09Z"
                  stroke="#BE3FE2" stroke-width="4"/>
        </g>
        <g id="Planet 2">
            <ellipse id="Ellipse 6" rx="161.091" ry="143.974"
                     transform="matrix(0.990331 -0.138724 0.174677 0.984626 1959.52 739.384)"
                     fill="url(#paint1_radial_80_66)"/>
            <g id="Ellipse 7" filter="url(#filter2_d_80_66)">
                <path d="M1798.63 743.119C1798.63 743.119 1691.95 767.132 1696.23 791.256C1700.2 813.625 1819.06 815.56 1961.71 795.577C2104.36 775.595 2216.78 741.262 2212.81 718.893C2209.62 700.892 2167.56 707.415 2116.11 707.717"
                      stroke="#C6C1F7" stroke-width="6"/>
            </g>
        </g>
        <g id="Planet 1">
            <ellipse id="Ellipse 14" rx="133.226" ry="121.499"
                     transform="matrix(0.954835 0.297137 -0.366664 0.930353 234.223 226.748)"
                     fill="url(#paint2_radial_80_66)"/>
            <g id="Ellipse 15" filter="url(#filter3_d_80_66)">
                <path d="M111.934 172.631C111.934 172.631 21.5922 152.549 13.9056 172.053C6.77805 190.138 94.4937 233.893 209.824 269.783C325.154 305.673 424.426 320.106 431.553 302.021C437.289 287.468 402.099 276.555 363.612 258.462"
                      stroke="#2869DE" stroke-width="6"/>
            </g>
            <g id="Ellipse 16" filter="url(#filter4_d_80_66)">
                <path d="M123.572 142.364C123.572 142.364 33.2302 122.283 25.5436 141.786C18.416 159.871 106.132 203.626 221.462 239.516C336.792 275.406 436.064 289.84 443.191 271.755C448.927 257.201 407.71 242.61 369.223 224.517"
                      stroke="#2869DE" stroke-width="6"/>
            </g>
        </g>
        <path id="Star 6"
              d="M1468.84 145.098L1471.7 151.544C1473.02 154.527 1475.67 156.868 1478.99 158.031L1486.24 160.573C1491.29 162.343 1493.77 166.374 1493.77 170.369C1493.77 174.363 1491.29 178.395 1486.24 180.164L1478.99 182.706C1475.67 183.869 1473.02 186.211 1471.7 189.194L1468.84 195.639C1466.87 200.077 1462.33 202.33 1457.74 202.33C1453.14 202.33 1448.61 200.077 1446.64 195.639L1443.78 189.194C1442.46 186.211 1439.81 183.869 1436.49 182.706L1429.24 180.164C1424.19 178.395 1421.71 174.363 1421.71 170.369C1421.71 166.374 1424.19 162.343 1429.24 160.573L1436.49 158.031C1439.81 156.868 1442.46 154.527 1443.78 151.544L1446.64 145.098C1448.61 140.66 1453.14 138.408 1457.74 138.408C1462.33 138.408 1466.87 140.66 1468.84 145.098Z"
              fill="#877CE9" stroke="#D9D9D9"/>
        <g id="Star 15" filter="url(#filter5_d_80_66)">
            <path d="M986.827 100.704C991.818 106.046 986.865 114.058 979.114 113.181L973.751 112.574C971.385 112.306 968.999 112.922 967.164 114.276L963.004 117.344C956.992 121.779 947.976 117.377 948.963 110.49L949.646 105.725C949.948 103.622 949.254 101.502 947.73 99.8712L944.278 96.1752C939.287 90.8326 944.241 82.8209 951.992 83.6982L957.354 84.3051C959.72 84.573 962.106 83.9565 963.941 82.6026L968.101 79.5348C974.113 75.1004 983.129 79.5017 982.142 86.3892L981.459 91.1541C981.158 93.2569 981.851 95.3766 983.375 97.0077L986.827 100.704Z"
                  fill="#AED34F"/>
            <path d="M979.204 112.706L973.842 112.099C971.341 111.816 968.808 112.466 966.851 113.909L962.692 116.977C959.881 119.05 956.355 119.072 953.622 117.737C950.888 116.403 949.018 113.747 949.479 110.527L950.162 105.762C950.484 103.521 949.743 101.272 948.133 99.5486L944.68 95.8525C939.996 90.8379 944.626 83.3497 951.901 84.1732L957.263 84.7801C959.764 85.0632 962.297 84.4128 964.254 82.9695L968.413 79.9018C971.224 77.8288 974.75 77.8073 977.483 79.1416C980.217 80.4759 982.087 83.132 981.626 86.3517L980.943 91.1166C980.622 93.3582 981.362 95.6067 982.972 97.3304L986.425 101.026C991.109 106.041 986.479 113.529 979.204 112.706Z"
                  stroke="white"/>
        </g>
        <path id="Star 4"
              d="M1607.94 876.061L1644.91 934.345C1646.98 937.615 1650.67 939.626 1654.53 939.597L1725.56 939.07C1735.73 938.994 1739.75 952.327 1730.9 956.783L1669.09 987.884C1665.73 989.575 1663.67 992.953 1663.71 996.707L1664.49 1063.61C1664.6 1073.02 1651.92 1076.04 1646.71 1067.84L1609.74 1009.56C1607.67 1006.29 1603.99 1004.28 1600.12 1004.3L1529.1 1004.83C1518.92 1004.91 1514.9 991.575 1523.75 987.119L1585.56 956.018C1588.92 954.326 1590.98 950.949 1590.94 947.195L1590.16 880.294C1590.05 870.879 1602.74 867.859 1607.94 876.061Z"
              fill="#877CE9" stroke="#D9D9D9"/>
        <g id="Star 1" filter="url(#filter6_d_80_66)">
            <path d="M1783.8 89.6082C1784.49 85.6031 1789.68 84.3682 1792.54 87.5269L1821.29 119.31C1822.72 120.894 1824.97 121.496 1826.94 120.819L1869.21 106.244C1873.39 104.805 1877.54 109.061 1875.81 113.01L1860 149.221C1859.08 151.323 1859.84 153.838 1861.82 155.25L1895.89 179.585C1899.6 182.239 1898.4 187.769 1893.98 188.377L1849.17 194.537C1847.09 194.823 1845.47 196.345 1845.12 198.354L1838.11 238.653C1837.41 242.658 1832.22 243.893 1829.37 240.734L1800.61 208.952C1799.18 207.367 1796.93 206.765 1794.97 207.442L1752.69 222.017C1748.52 223.456 1744.37 219.2 1746.09 215.251L1761.9 179.04C1762.82 176.938 1762.06 174.423 1760.08 173.011L1726.02 148.676C1722.3 146.022 1723.5 140.493 1727.92 139.885L1772.74 133.724C1774.82 133.438 1776.43 131.916 1776.78 129.907L1783.8 89.6082Z"
                  fill="#AED34F"/>
            <path d="M1822.41 118.367L1793.66 86.5845C1789.94 82.4782 1783.2 84.0836 1782.29 89.2902L1775.28 129.589C1775.03 130.995 1773.91 132.061 1772.45 132.261L1727.64 138.421C1721.89 139.212 1720.33 146.401 1725.16 149.851L1759.22 174.185C1760.61 175.174 1761.14 176.934 1760.5 178.406L1744.69 214.616C1742.44 219.75 1747.84 225.283 1753.26 223.412L1795.54 208.837C1796.91 208.363 1798.49 208.785 1799.49 209.894L1828.25 241.677C1831.96 245.783 1838.7 244.178 1839.61 238.971L1846.62 198.672C1846.87 197.266 1848 196.2 1849.45 196L1894.27 189.84C1900.02 189.049 1901.58 181.861 1896.75 178.41L1862.68 154.076C1861.3 153.087 1860.76 151.327 1861.41 149.855L1877.22 113.645C1879.46 108.511 1874.06 102.978 1868.64 104.849L1826.36 119.424C1824.99 119.898 1823.41 119.476 1822.41 118.367Z"
                  stroke="#4E9A98" stroke-width="3"/>
        </g>
        <g id="big_star" filter="url(#filter7_d_80_66)">
            <path d="M340.303 688.493C345.904 680.784 357.85 682.727 360.016 691.698L373.269 746.607C374.596 752.103 380.035 755.5 385.756 754.406L447.529 742.584C457.319 740.711 464.031 751.388 458.133 759.451L426.541 802.637C422.68 807.914 424.098 815.142 429.612 818.289L478.618 846.263C487.381 851.265 484.643 864.564 474.454 866.485L417.474 877.224C411.064 878.432 406.857 884.745 408.364 890.896L420.697 941.224C423 950.621 412.468 958.494 404.059 953.661L351 923.166C346.087 920.342 339.646 921.808 336.215 926.53L301.937 973.709C296.337 981.418 284.39 979.476 282.225 970.504L268.972 915.595C267.645 910.099 262.205 906.702 256.485 907.796L194.711 919.618C184.922 921.491 178.21 910.814 184.108 902.752L215.7 859.566C219.561 854.288 218.143 847.06 212.629 843.913L163.622 815.939C154.859 810.937 157.598 797.638 167.787 795.718L224.766 784.978C231.177 783.77 235.383 777.457 233.876 771.307L221.543 720.978C219.241 711.581 229.773 703.709 238.181 708.541L291.24 739.036C296.153 741.86 302.595 740.395 306.026 735.672L340.303 688.493Z"
                  fill="#AED34F"/>
            <path d="M374.74 746.209L361.487 691.301C359.026 681.106 345.451 678.898 339.086 687.658L304.809 734.838C301.846 738.916 296.282 740.182 292.039 737.743L238.98 707.248C229.425 701.756 217.457 710.702 220.073 721.38L232.406 771.709C233.708 777.021 230.075 782.473 224.539 783.517L167.559 794.256C155.981 796.438 152.869 811.55 162.827 817.235L211.834 845.209C216.596 847.927 217.82 854.169 214.486 858.727L182.894 901.913C176.191 911.075 183.819 923.208 194.943 921.079L256.717 909.258C261.657 908.312 266.355 911.246 267.501 915.993L280.754 970.901C283.215 981.097 296.79 983.304 303.154 974.544L337.432 927.365C340.395 923.286 345.958 922.021 350.201 924.459L403.26 954.954C412.815 960.446 424.784 951.5 422.167 940.822L409.834 890.493C408.532 885.181 412.165 879.729 417.702 878.686L474.681 867.947C486.259 865.764 489.372 850.652 479.414 844.968L430.407 816.994C425.645 814.275 424.421 808.034 427.755 803.475L459.347 760.29C466.049 751.127 458.422 738.994 447.298 741.123L385.524 752.945C380.584 753.89 375.886 750.956 374.74 746.209Z"
                  stroke="#25827F" stroke-width="3"/>
        </g>
    </g>
    <defs>
        <filter id="filter0_d_80_66" x="1859.6" y="304.79" width="125.291" height="120.468" filterUnits="userSpaceOnUse"
                color-interpolation-filters="sRGB">
            <feFlood flood-opacity="0" result="BackgroundImageFix"/>
            <feColorMatrix in="SourceAlpha" type="matrix" values="0 0 0 0 0 0 0 0 0 0 0 0 0 0 0 0 0 0 127 0"
                           result="hardAlpha"/>
            <feOffset dy="4"/>
            <feGaussianBlur stdDeviation="20.5"/>
            <feComposite in2="hardAlpha" operator="out"/>
            <feColorMatrix type="matrix" values="0 0 0 0 0.933333 0 0 0 0 0.552941 0 0 0 0 0.72549 0 0 0 1 0"/>
            <feBlend mode="normal" in2="BackgroundImageFix" result="effect1_dropShadow_80_66"/>
            <feBlend mode="normal" in="SourceGraphic" in2="effect1_dropShadow_80_66" result="shape"/>
        </filter>
        <filter id="filter1_d_80_66" x="584.849" y="891.073" width="431.929" height="397.956"
                filterUnits="userSpaceOnUse" color-interpolation-filters="sRGB">
            <feFlood flood-opacity="0" result="BackgroundImageFix"/>
            <feColorMatrix in="SourceAlpha" type="matrix" values="0 0 0 0 0 0 0 0 0 0 0 0 0 0 0 0 0 0 127 0"
                           result="hardAlpha"/>
            <feOffset dy="4"/>
            <feGaussianBlur stdDeviation="38"/>
            <feComposite in2="hardAlpha" operator="out"/>
            <feColorMatrix type="matrix" values="0 0 0 0 0.745098 0 0 0 0 0.247059 0 0 0 0 0.886275 0 0 0 1 0"/>
            <feBlend mode="normal" in2="BackgroundImageFix" result="effect1_dropShadow_80_66"/>
            <feBlend mode="normal" in="SourceGraphic" in2="effect1_dropShadow_80_66" result="shape"/>
        </filter>
        <filter id="filter2_d_80_66" x="1683.09" y="697.338" width="542.849" height="129.03"
                filterUnits="userSpaceOnUse" color-interpolation-filters="sRGB">
            <feFlood flood-opacity="0" result="BackgroundImageFix"/>
            <feColorMatrix in="SourceAlpha" type="matrix" values="0 0 0 0 0 0 0 0 0 0 0 0 0 0 0 0 0 0 127 0"
                           result="hardAlpha"/>
            <feOffset dy="4"/>
            <feGaussianBlur stdDeviation="5"/>
            <feComposite in2="hardAlpha" operator="out"/>
            <feColorMatrix type="matrix" values="0 0 0 0 0.72549 0 0 0 0 0.741176 0 0 0 0 0.941176 0 0 0 1 0"/>
            <feBlend mode="normal" in2="BackgroundImageFix" result="effect1_dropShadow_80_66"/>
            <feBlend mode="normal" in="SourceGraphic" in2="effect1_dropShadow_80_66" result="shape"/>
        </filter>
        <filter id="filter3_d_80_66" x="0.429138" y="154.602" width="444.814" height="172.149"
                filterUnits="userSpaceOnUse" color-interpolation-filters="sRGB">
            <feFlood flood-opacity="0" result="BackgroundImageFix"/>
            <feColorMatrix in="SourceAlpha" type="matrix" values="0 0 0 0 0 0 0 0 0 0 0 0 0 0 0 0 0 0 127 0"
                           result="hardAlpha"/>
            <feOffset dy="4"/>
            <feGaussianBlur stdDeviation="5"/>
            <feComposite in2="hardAlpha" operator="out"/>
            <feColorMatrix type="matrix" values="0 0 0 0 0.313726 0 0 0 0 0.564706 0 0 0 0 0.882353 0 0 0 1 0"/>
            <feBlend mode="normal" in2="BackgroundImageFix" result="effect1_dropShadow_80_66"/>
            <feBlend mode="normal" in="SourceGraphic" in2="effect1_dropShadow_80_66" result="shape"/>
        </filter>
        <filter id="filter4_d_80_66" x="12.0671" y="124.335" width="444.737" height="172.149"
                filterUnits="userSpaceOnUse" color-interpolation-filters="sRGB">
            <feFlood flood-opacity="0" result="BackgroundImageFix"/>
            <feColorMatrix in="SourceAlpha" type="matrix" values="0 0 0 0 0 0 0 0 0 0 0 0 0 0 0 0 0 0 127 0"
                           result="hardAlpha"/>
            <feOffset dy="4"/>
            <feGaussianBlur stdDeviation="5"/>
            <feComposite in2="hardAlpha" operator="out"/>
            <feColorMatrix type="matrix" values="0 0 0 0 0.313726 0 0 0 0 0.564706 0 0 0 0 0.882353 0 0 0 1 0"/>
            <feBlend mode="normal" in2="BackgroundImageFix" result="effect1_dropShadow_80_66"/>
            <feBlend mode="normal" in="SourceGraphic" in2="effect1_dropShadow_80_66" result="shape"/>
        </filter>
        <filter id="filter5_d_80_66" x="914.268" y="53.7487" width="102.57" height="97.3816"
                filterUnits="userSpaceOnUse" color-interpolation-filters="sRGB">
            <feFlood flood-opacity="0" result="BackgroundImageFix"/>
            <feColorMatrix in="SourceAlpha" type="matrix" values="0 0 0 0 0 0 0 0 0 0 0 0 0 0 0 0 0 0 127 0"
                           result="hardAlpha"/>
            <feOffset dy="4"/>
            <feGaussianBlur stdDeviation="14"/>
            <feComposite in2="hardAlpha" operator="out"/>
            <feColorMatrix type="matrix" values="0 0 0 0 0.682353 0 0 0 0 0.827451 0 0 0 0 0.309804 0 0 0 1 0"/>
            <feBlend mode="normal" in2="BackgroundImageFix" result="effect1_dropShadow_80_66"/>
            <feBlend mode="normal" in="SourceGraphic" in2="effect1_dropShadow_80_66" result="shape"/>
        </filter>
        <filter id="filter6_d_80_66" x="1649.76" y="15.7825" width="322.378" height="304.696"
                filterUnits="userSpaceOnUse" color-interpolation-filters="sRGB">
            <feFlood flood-opacity="0" result="BackgroundImageFix"/>
            <feColorMatrix in="SourceAlpha" type="matrix" values="0 0 0 0 0 0 0 0 0 0 0 0 0 0 0 0 0 0 127 0"
                           result="hardAlpha"/>
            <feOffset dy="4"/>
            <feGaussianBlur stdDeviation="35.5"/>
            <feComposite in2="hardAlpha" operator="out"/>
            <feColorMatrix type="matrix" values="0 0 0 0 0.305882 0 0 0 0 0.603922 0 0 0 0 0.596078 0 0 0 1 0"/>
            <feBlend mode="normal" in2="BackgroundImageFix" result="effect1_dropShadow_80_66"/>
            <feBlend mode="normal" in="SourceGraphic" in2="effect1_dropShadow_80_66" result="shape"/>
        </filter>
        <filter id="filter7_d_80_66" x="115.34" y="644.714" width="411.56" height="380.774" filterUnits="userSpaceOnUse"
                color-interpolation-filters="sRGB">
            <feFlood flood-opacity="0" result="BackgroundImageFix"/>
            <feColorMatrix in="SourceAlpha" type="matrix" values="0 0 0 0 0 0 0 0 0 0 0 0 0 0 0 0 0 0 127 0"
                           result="hardAlpha"/>
            <feOffset dy="4"/>
            <feGaussianBlur stdDeviation="20"/>
            <feComposite in2="hardAlpha" operator="out"/>
            <feColorMatrix type="matrix" values="0 0 0 0 0.305882 0 0 0 0 0.603922 0 0 0 0 0.596078 0 0 0 1 0"/>
            <feBlend mode="normal" in2="BackgroundImageFix" result="effect1_dropShadow_80_66"/>
            <feBlend mode="normal" in="SourceGraphic" in2="effect1_dropShadow_80_66" result="shape"/>
        </filter>
        <linearGradient id="paint0_linear_80_66" x1="835.512" y1="-84.9245" x2="734.133" y2="56.1944"
                        gradientUnits="userSpaceOnUse">
            <stop offset="0.0208333" stop-color="#5A76BD"/>
            <stop offset="1" stop-color="#6E8967"/>
        </linearGradient>
        <radialGradient id="paint1_radial_80_66" cx="0" cy="0" r="1" gradientUnits="userSpaceOnUse"
                        gradientTransform="translate(83.7418 112.551) rotate(40.1452) scale(311.926 307.974)">
            <stop offset="0.333333" stop-color="#18111D"/>
            <stop offset="1" stop-color="#C3BEF3"/>
        </radialGradient>
        <radialGradient id="paint2_radial_80_66" cx="0" cy="0" r="1" gradientUnits="userSpaceOnUse"
                        gradientTransform="translate(69.2562 94.9813) rotate(40.7164) scale(260.17 257.699)">
            <stop offset="0.333333" stop-color="#18111D"/>
            <stop offset="1" stop-color="#5090E1"/>
        </radialGradient>
    </defs>
</svg>
