<svg width="1440" height="1024" viewBox="0 0 1440 1024" fill="none" xmlns="http://www.w3.org/2000/svg">
    <path d="M1327.32 974.265C1326.7 970.398 1321.46 969.637 1319.76 973.167L1309.6 994.297C1309.22 995.094 1308.36 995.544 1307.48 995.406L1284.17 991.704C1280.28 991.087 1277.94 995.871 1280.81 998.569L1297.89 1014.64C1298.54 1015.25 1298.71 1016.21 1298.3 1017.01L1287.62 1037.78C1285.83 1041.27 1289.61 1044.99 1293.07 1043.13L1313.87 1031.98C1314.64 1031.57 1315.59 1031.71 1316.22 1032.33L1332.98 1048.94C1335.77 1051.7 1340.45 1049.22 1339.73 1045.36L1335.4 1022.4C1335.24 1021.53 1335.67 1020.65 1336.47 1020.25L1357.42 1009.71C1360.94 1007.94 1360.06 1002.69 1356.15 1002.17L1332.75 999.081C1331.88 998.965 1331.18 998.288 1331.04 997.416L1327.32 974.265Z"
          fill="#618FC6" stroke="#2869DE" stroke-width="2"/>
    <path d="M1452.03 491.499V490.501L1444.55 490.06C1436.63 489.594 1430.34 483.225 1429.98 475.3L1429.5 464.977L1428.5 464.977L1428.02 475.301C1427.66 483.225 1421.37 489.594 1413.45 490.06L1405.97 490.501L1405.97 491.499L1413.45 491.94C1421.37 492.406 1427.66 498.775 1428.02 506.7L1428.5 517.023H1429.5L1429.98 506.7C1430.34 498.775 1436.63 492.406 1444.55 491.94L1452.03 491.499Z"
          fill="#F2EAD5" stroke="#663DB5"/>
    <path d="M933.352 848.245L933.5 845.446L933.648 848.245C934.096 856.682 940.844 863.418 949.282 863.85L952.214 864L949.282 864.15C940.844 864.582 934.096 871.318 933.648 879.755L933.5 882.554L933.352 879.755C932.904 871.318 926.156 864.582 917.718 864.15L914.786 864L917.718 863.85C926.156 863.418 932.904 856.682 933.352 848.245Z"
          fill="#9B32AB" stroke="white"/>
    <path d="M261 141L388 204" stroke="#D9D9D9" stroke-dasharray="8 8"/>
    <path d="M241.155 105.777C241.961 103.6 245.039 103.6 245.845 105.777L249.98 116.952C250.334 117.91 251.09 118.666 252.048 119.02L263.223 123.155C265.4 123.961 265.4 127.039 263.223 127.845L252.048 131.98C251.09 132.334 250.334 133.09 249.98 134.048L245.845 145.223C245.039 147.4 241.961 147.4 241.155 145.223L237.02 134.048C236.666 133.09 235.91 132.334 234.952 131.98L223.777 127.845C221.6 127.039 221.6 123.961 223.777 123.155L234.952 119.02C235.91 118.666 236.666 117.91 237.02 116.952L241.155 105.777Z"
          fill="#C3BFF3" stroke="#D9D9D9"/>
    <path d="M410.155 196.777C410.961 194.6 414.039 194.6 414.845 196.777L418.98 207.952C419.334 208.91 420.09 209.666 421.048 210.02L432.223 214.155C434.4 214.961 434.4 218.039 432.223 218.845L421.048 222.98C420.09 223.334 419.334 224.09 418.98 225.048L414.845 236.223C414.039 238.4 410.961 238.4 410.155 236.223L406.02 225.048C405.666 224.09 404.91 223.334 403.952 222.98L392.777 218.845C390.6 218.039 390.6 214.961 392.777 214.155L403.952 210.02C404.91 209.666 405.666 208.91 406.02 207.952L410.155 196.777Z"
          fill="#C3BFF3" stroke="#D9D9D9"/>
    <g filter="url(#filter0_d_26_13)">
        <path d="M1326.83 337.811C1325.67 335.281 1328.28 332.669 1330.81 333.832L1341.64 338.811C1342.43 339.176 1343.35 339.176 1344.14 338.811L1354.97 333.832C1357.5 332.669 1360.11 335.281 1358.95 337.811L1353.97 348.638C1353.61 349.433 1353.61 350.349 1353.97 351.144L1358.95 361.97C1360.11 364.501 1357.5 367.113 1354.97 365.949L1344.14 360.971C1343.35 360.605 1342.43 360.605 1341.64 360.971L1330.81 365.949C1328.28 367.113 1325.67 364.501 1326.83 361.97L1331.81 351.144C1332.18 350.349 1332.18 349.433 1331.81 348.638L1326.83 337.811Z"
              fill="#9B32AB"/>
        <path d="M1327.29 337.603C1326.32 335.494 1328.49 333.317 1330.6 334.287L1341.43 339.265C1342.36 339.692 1343.42 339.692 1344.35 339.265L1355.18 334.287C1357.29 333.317 1359.46 335.494 1358.5 337.603L1353.52 348.429C1353.09 349.357 1353.09 350.425 1353.52 351.353L1358.5 362.179C1359.46 364.288 1357.29 366.465 1355.18 365.495L1344.35 360.517C1343.42 360.09 1342.36 360.09 1341.43 360.517L1330.6 365.495C1328.49 366.465 1326.32 364.288 1327.29 362.179L1332.26 351.353C1332.69 350.425 1332.69 349.357 1332.26 348.429L1327.29 337.603Z"
              stroke="#D9D9D9"/>
    </g>
    <path d="M425.19 777.135C427.627 770.955 436.373 770.955 438.81 777.135L440.611 781.702C441.457 783.846 443.154 785.543 445.298 786.389L449.865 788.19C456.045 790.627 456.045 799.373 449.865 801.81L445.298 803.611C443.154 804.457 441.457 806.154 440.611 808.298L438.81 812.865C436.373 819.045 427.627 819.045 425.19 812.865L423.389 808.298C422.543 806.154 420.846 804.457 418.702 803.611L414.135 801.81C407.955 799.373 407.955 790.627 414.135 788.19L418.702 786.389C420.846 785.543 422.543 783.846 423.389 781.702L425.19 777.135Z"
          stroke="#F2EAD5"/>
    <path d="M442.404 -43.7593C441.713 -46.1775 438.286 -46.1775 437.596 -43.7593L430.649 -19.4292C429.968 -17.0422 427.087 -16.1037 425.13 -17.6312L405.106 -33.2631C403.121 -34.8126 400.349 -32.7871 401.223 -30.4253L409.974 -6.76159C410.839 -4.4233 409.052 -1.95631 406.56 -2.05L381.185 -3.00428C378.664 -3.09911 377.605 0.176834 379.706 1.57506L400.755 15.5864C402.836 16.9715 402.836 20.0285 400.755 21.4136L379.706 35.4249C377.605 36.8232 378.664 40.0991 381.185 40.0043L406.56 39.05C409.052 38.9563 410.839 41.4233 409.974 43.7616L401.223 67.4253C400.349 69.7871 403.121 71.8126 405.106 70.2631L425.13 54.6312C427.087 53.1037 429.968 54.0422 430.649 56.4292L437.596 80.7594C438.287 83.1775 441.714 83.1775 442.404 80.7593L449.351 56.4292C450.032 54.0422 452.913 53.1037 454.87 54.6312L474.894 70.2631C476.879 71.8126 479.651 69.7871 478.777 67.4253L470.026 43.7616C469.161 41.4233 470.948 38.9563 473.44 39.05L498.815 40.0043C501.336 40.0991 502.395 36.8232 500.294 35.4249L479.245 21.4136C477.164 20.0285 477.164 16.9715 479.245 15.5864L500.294 1.57507C502.395 0.176838 501.336 -3.09911 498.815 -3.00428L473.44 -2.05C470.948 -1.95631 469.161 -4.42331 470.026 -6.76159L478.777 -30.4253C479.651 -32.7871 476.879 -34.8126 474.894 -33.2631L454.87 -17.6312C452.913 -16.1037 450.032 -17.0422 449.351 -19.4292L442.404 -43.7593Z"
          fill="url(#paint0_linear_26_13)" stroke="#D9D9D9"/>
    <circle cx="74" cy="173" r="12.5" stroke="#F2EAD5"/>
    <circle cx="302.96" cy="745.96" r="21.5674" transform="rotate(165.244 302.96 745.96)" fill="#678385"
            stroke="white"/>
    <circle cx="147" cy="974" r="12.5" stroke="#663DB5"/>
    <circle cx="1135" cy="160" r="12.5" stroke="#D9D9D9"/>
    <circle cx="103.5" cy="526.5" r="7.5" fill="#D9D9D9"/>
    <circle cx="1140.5" cy="226.5" r="7.5" fill="#F2EAD5"/>
    <circle cx="806.5" cy="849.5" r="7" stroke="#D9D9D9"/>
    <g filter="url(#filter1_d_26_13)">
        <path d="M426.684 908.977C423.7 897.55 439.511 891.299 445.147 901.677L466.688 941.338C469.863 947.183 477.753 948.357 482.492 943.69L514.623 912.05C523.047 903.755 536.359 914.368 530.149 924.428L506.608 962.564C503.096 968.253 506.048 975.719 512.501 977.468L555.756 989.195C567.166 992.288 564.711 1009.14 552.893 1008.84L507.811 1007.73C501.162 1007.57 496.208 1013.82 497.889 1020.25L509.294 1063.92C512.278 1075.35 496.468 1081.6 490.831 1071.22L469.29 1031.56C466.116 1025.72 458.226 1024.54 453.486 1029.21L421.355 1060.85C412.931 1069.14 399.619 1058.53 405.829 1048.47L429.371 1010.34C432.882 1004.65 429.93 997.18 423.478 995.431L380.222 983.704C368.812 980.611 371.267 963.764 383.085 964.056L428.167 965.169C434.816 965.333 439.77 959.081 438.089 952.645L426.684 908.977Z"
              fill="#EE8DB9"/>
        <path d="M446.905 900.722C440.141 888.269 421.168 895.77 424.749 909.482L436.154 953.15C437.499 958.299 433.536 963.301 428.216 963.17L383.135 962.056C368.953 961.706 366.007 981.923 379.699 985.635L422.954 997.361C428.117 998.761 430.478 1004.73 427.669 1009.28L404.127 1047.42C396.675 1059.49 412.65 1072.23 422.758 1062.27L454.89 1030.63C458.681 1026.9 464.993 1027.84 467.533 1032.52L489.074 1072.18C495.837 1084.63 514.81 1077.13 511.229 1063.42L499.824 1019.75C498.48 1014.6 502.442 1009.6 507.762 1009.73L552.843 1010.84C567.025 1011.19 569.971 990.977 556.279 987.265L513.024 975.538C507.862 974.139 505.5 968.166 508.31 963.615L531.851 925.478C539.303 913.407 523.328 900.671 513.22 910.625L481.089 942.265C477.297 945.999 470.985 945.059 468.445 940.383L446.905 900.722Z"
              stroke="#BE3FE2" stroke-width="4"/>
    </g>
    <circle cx="1371.98" cy="682.083" r="126" transform="rotate(-8.95841 1371.98 682.083)"
            fill="url(#paint1_radial_26_13)"/>
    <g filter="url(#filter2_d_26_13)">
        <path d="M1246.46 685.362C1246.46 685.362 1163.22 706.445 1166.56 727.625C1169.66 747.265 1262.39 748.964 1373.68 731.42C1484.97 713.876 1572.68 683.732 1569.59 664.093C1567.1 648.288 1534.28 654.015 1494.14 654.28"
              stroke="#C6C1F7" stroke-width="6"/>
    </g>
    <circle cx="25.9527" cy="232" r="105.154" transform="rotate(19.3006 25.9527 232)" fill="url(#paint2_radial_26_13)"/>
    <g filter="url(#filter3_d_26_13)">
        <path d="M-69.4532 184.486C-69.4532 184.486 -139.935 166.855 -145.931 183.978C-151.492 199.857 -83.0592 238.273 6.91771 269.783C96.8947 301.294 174.343 313.966 179.904 298.088C184.379 285.31 156.925 275.73 126.898 259.844"
              stroke="#2869DE" stroke-width="6"/>
    </g>
    <g filter="url(#filter4_d_26_13)">
        <path d="M-60.3736 157.913C-60.3736 157.913 -130.855 140.281 -136.852 157.405C-142.413 173.283 -73.9797 211.7 15.9973 243.21C105.974 274.721 183.423 287.393 188.984 271.515C193.458 258.737 161.302 245.926 131.276 230.041"
              stroke="#2869DE" stroke-width="6"/>
    </g>
    <path d="M971.951 160.319C975.01 152.56 985.99 152.56 989.049 160.319L991.281 165.978C992.317 168.604 994.396 170.683 997.022 171.719L1002.68 173.951C1010.44 177.01 1010.44 187.99 1002.68 191.049L997.022 193.281C994.396 194.317 992.317 196.396 991.281 199.022L989.049 204.681C985.99 212.44 975.01 212.44 971.951 204.681L969.719 199.022C968.683 196.396 966.604 194.317 963.978 193.281L958.319 191.049C950.56 187.99 950.56 177.01 958.319 173.951L963.978 171.719C966.604 170.683 968.683 168.604 969.719 165.978L971.951 160.319Z"
          fill="#877CE9" stroke="#D9D9D9"/>
    <g filter="url(#filter5_d_26_13)">
        <path d="M613.111 121.336C617.004 126.026 613.14 133.06 607.093 132.29L602.909 131.757C601.063 131.522 599.202 132.063 597.77 133.252L594.525 135.946C589.834 139.839 582.8 135.975 583.57 129.927L584.103 125.744C584.338 123.898 583.797 122.037 582.608 120.605L579.915 117.36C576.022 112.669 579.886 105.635 585.933 106.405L590.117 106.938C591.963 107.173 593.824 106.632 595.256 105.443L598.501 102.75C603.192 98.8564 610.226 102.721 609.455 108.768L608.923 112.951C608.687 114.797 609.229 116.658 610.417 118.091L613.111 121.336Z"
              fill="#AED34F"/>
        <path d="M612.726 121.655C616.33 125.997 612.753 132.507 607.156 131.794L602.972 131.261C600.989 131.009 598.989 131.59 597.451 132.867L594.206 135.561C589.864 139.164 583.353 135.588 584.066 129.991L584.599 125.807C584.852 123.824 584.27 121.824 582.993 120.285L580.3 117.04C576.696 112.699 580.273 106.188 585.87 106.901L590.053 107.434C592.037 107.687 594.037 107.105 595.575 105.828L598.82 103.135C603.162 99.531 609.672 103.108 608.959 108.705L608.427 112.888C608.174 114.872 608.755 116.871 610.033 118.41L612.726 121.655Z"
              stroke="white"/>
    </g>
    <path d="M1084 814.33C1083.9 804.506 1096.96 801.009 1101.78 809.567L1126.02 852.579C1127.9 855.908 1131.44 857.955 1135.26 857.923L1184.61 857.511C1194.42 857.429 1197.9 870.446 1189.37 875.277L1146.42 899.597C1143.1 901.48 1141.06 905.021 1141.1 908.842L1141.61 958.214C1141.71 968.037 1128.66 971.535 1123.83 962.977L1099.59 919.965C1097.71 916.636 1094.18 914.589 1090.36 914.621L1041 915.033C1031.2 915.115 1027.71 902.097 1036.24 897.266L1079.19 872.947C1082.51 871.064 1084.55 867.523 1084.51 863.701L1084 814.33Z"
          fill="#877CE9" stroke="#D9D9D9"/>
    <g filter="url(#filter6_d_26_13)">
        <path d="M1234.48 114.153C1235.15 109.858 1240.6 108.397 1243.32 111.785L1263.7 137.132C1265.06 138.831 1267.37 139.449 1269.4 138.661L1299.72 126.897C1303.77 125.325 1307.76 129.315 1306.19 133.367L1294.43 163.686C1293.64 165.718 1294.26 168.026 1295.96 169.392L1321.3 189.767C1324.69 192.49 1323.23 197.941 1318.94 198.605L1286.8 203.577C1284.64 203.91 1282.95 205.6 1282.62 207.754L1277.65 239.893C1276.98 244.188 1271.53 245.649 1268.81 242.261L1248.44 216.914C1247.07 215.215 1244.76 214.597 1242.73 215.385L1212.41 227.149C1208.36 228.721 1204.37 224.731 1205.94 220.679L1217.7 190.36C1218.49 188.328 1217.87 186.02 1216.18 184.654L1190.83 164.279C1187.44 161.556 1188.9 156.105 1193.2 155.441L1225.34 150.469C1227.49 150.136 1229.18 148.446 1229.51 146.292L1234.48 114.153Z"
              fill="#AED34F"/>
        <path d="M1244.49 110.845C1240.95 106.441 1233.87 108.34 1233 113.924L1228.03 146.063C1227.8 147.57 1226.61 148.753 1225.11 148.986L1192.97 153.958C1187.38 154.822 1185.48 161.908 1189.89 165.448L1215.24 185.823C1216.42 186.779 1216.86 188.395 1216.31 189.817L1204.54 220.136C1202.5 225.404 1207.69 230.591 1212.95 228.547L1243.27 216.784C1244.69 216.232 1246.31 216.665 1247.27 217.854L1267.64 243.201C1271.18 247.605 1278.27 245.706 1279.13 240.122L1284.1 207.983C1284.34 206.476 1285.52 205.293 1287.03 205.06L1319.17 200.088C1324.75 199.224 1326.65 192.138 1322.24 188.598L1296.9 168.223C1295.71 167.267 1295.27 165.651 1295.83 164.229L1307.59 133.91C1309.63 128.642 1304.45 123.455 1299.18 125.499L1268.86 137.263C1267.44 137.814 1265.82 137.381 1264.87 136.192L1244.49 110.845Z"
              stroke="#4E9A98" stroke-width="3"/>
    </g>
    <g filter="url(#filter7_d_26_13)">
        <path d="M105.383 642.56C110.701 634.323 123.324 636.633 125.38 646.22L133.957 686.211C135.232 692.154 141.086 695.937 147.029 694.657L187.103 686.027C196.7 683.96 203.992 694.545 198.642 702.775L176.425 736.954C173.101 742.067 174.571 748.908 179.702 752.204L214.078 774.287C222.348 779.599 220.03 792.263 210.416 794.302L170.447 802.78C164.481 804.045 160.683 809.922 161.981 815.881L170.654 855.712C172.743 865.304 162.175 872.621 153.932 867.289L119.511 845.026C114.407 841.725 107.593 843.189 104.296 848.296L82.1117 882.658C76.7939 890.895 64.1709 888.585 62.1149 878.998L53.5377 839.007C52.2629 833.064 46.4089 829.281 40.4664 830.561L0.391614 839.191C-9.20489 841.258 -16.4971 830.673 -11.147 822.443L11.0703 788.264C14.394 783.151 12.9238 776.31 7.79287 773.014L-26.5834 750.931C-34.8527 745.619 -32.5351 732.955 -22.9205 730.916L17.0483 722.438C23.0139 721.173 26.8116 715.296 25.5141 709.337L16.8407 669.505C14.7521 659.914 25.3202 652.597 33.5629 657.929L67.9841 680.192C73.0882 683.493 79.9025 682.029 83.1995 676.922L105.383 642.56Z"
              fill="#AED34F"/>
        <path d="M126.847 645.905C124.51 635.011 110.166 632.386 104.123 641.747L81.9394 676.108C79.0919 680.519 73.2069 681.784 68.7987 678.933L34.3775 656.669C25.0109 650.611 13.0016 658.925 15.3751 669.825L24.0484 709.656C25.169 714.802 21.8892 719.878 16.7371 720.971L-23.2317 729.448C-34.1575 731.766 -36.7911 746.157 -27.3941 752.193L6.98216 774.276C11.4134 777.123 12.6831 783.031 9.8127 787.447L-12.4046 821.625C-18.4843 830.978 -10.1977 843.006 0.707415 840.658L40.7822 832.027C45.9144 830.922 50.9701 834.189 52.0711 839.322L60.6482 879.313C62.9847 890.207 77.329 892.832 83.3719 883.471L105.556 849.11C108.403 844.699 114.288 843.434 118.696 846.285L153.118 868.549C162.484 874.607 174.493 866.293 172.12 855.393L163.447 815.562C162.326 810.416 165.606 805.34 170.758 804.247L210.727 795.77C221.653 793.452 224.286 779.061 214.889 773.025L180.513 750.942C176.082 748.095 174.812 742.187 177.682 737.771L199.9 703.593C205.979 694.24 197.693 682.212 186.788 684.56L146.713 693.191C141.581 694.296 136.525 691.029 135.424 685.896L126.847 645.905Z"
              stroke="#25827F" stroke-width="3"/>
    </g>
    <defs>
        <filter id="filter0_d_26_13" x="1285.55" y="296.547" width="114.687" height="114.687"
                filterUnits="userSpaceOnUse" color-interpolation-filters="sRGB">
            <feFlood flood-opacity="0" result="BackgroundImageFix"/>
            <feColorMatrix in="SourceAlpha" type="matrix" values="0 0 0 0 0 0 0 0 0 0 0 0 0 0 0 0 0 0 127 0"
                           result="hardAlpha"/>
            <feOffset dy="4"/>
            <feGaussianBlur stdDeviation="20.5"/>
            <feComposite in2="hardAlpha" operator="out"/>
            <feColorMatrix type="matrix" values="0 0 0 0 0.933333 0 0 0 0 0.552941 0 0 0 0 0.72549 0 0 0 1 0"/>
            <feBlend mode="normal" in2="BackgroundImageFix" result="effect1_dropShadow_26_13"/>
            <feBlend mode="normal" in="SourceGraphic" in2="effect1_dropShadow_26_13" result="shape"/>
        </filter>
        <filter id="filter1_d_26_13" x="292.826" y="820.379" width="350.325" height="340.142"
                filterUnits="userSpaceOnUse" color-interpolation-filters="sRGB">
            <feFlood flood-opacity="0" result="BackgroundImageFix"/>
            <feColorMatrix in="SourceAlpha" type="matrix" values="0 0 0 0 0 0 0 0 0 0 0 0 0 0 0 0 0 0 127 0"
                           result="hardAlpha"/>
            <feOffset dy="4"/>
            <feGaussianBlur stdDeviation="38"/>
            <feComposite in2="hardAlpha" operator="out"/>
            <feColorMatrix type="matrix" values="0 0 0 0 0.745098 0 0 0 0 0.247059 0 0 0 0 0.886275 0 0 0 1 0"/>
            <feBlend mode="normal" in2="BackgroundImageFix" result="effect1_dropShadow_26_13"/>
            <feBlend mode="normal" in="SourceGraphic" in2="effect1_dropShadow_26_13" result="shape"/>
        </filter>
        <filter id="filter2_d_26_13" x="1153.46" y="644.055" width="429.203" height="116.488"
                filterUnits="userSpaceOnUse" color-interpolation-filters="sRGB">
            <feFlood flood-opacity="0" result="BackgroundImageFix"/>
            <feColorMatrix in="SourceAlpha" type="matrix" values="0 0 0 0 0 0 0 0 0 0 0 0 0 0 0 0 0 0 127 0"
                           result="hardAlpha"/>
            <feOffset dy="4"/>
            <feGaussianBlur stdDeviation="5"/>
            <feComposite in2="hardAlpha" operator="out"/>
            <feColorMatrix type="matrix" values="0 0 0 0 0.72549 0 0 0 0 0.741176 0 0 0 0 0.941176 0 0 0 1 0"/>
            <feBlend mode="normal" in2="BackgroundImageFix" result="effect1_dropShadow_26_13"/>
            <feBlend mode="normal" in="SourceGraphic" in2="effect1_dropShadow_26_13" result="shape"/>
        </filter>
        <filter id="filter3_d_26_13" x="-159.25" y="167.497" width="352.638" height="154.439"
                filterUnits="userSpaceOnUse" color-interpolation-filters="sRGB">
            <feFlood flood-opacity="0" result="BackgroundImageFix"/>
            <feColorMatrix in="SourceAlpha" type="matrix" values="0 0 0 0 0 0 0 0 0 0 0 0 0 0 0 0 0 0 127 0"
                           result="hardAlpha"/>
            <feOffset dy="4"/>
            <feGaussianBlur stdDeviation="5"/>
            <feComposite in2="hardAlpha" operator="out"/>
            <feColorMatrix type="matrix" values="0 0 0 0 0.313726 0 0 0 0 0.564706 0 0 0 0 0.882353 0 0 0 1 0"/>
            <feBlend mode="normal" in2="BackgroundImageFix" result="effect1_dropShadow_26_13"/>
            <feBlend mode="normal" in="SourceGraphic" in2="effect1_dropShadow_26_13" result="shape"/>
        </filter>
        <filter id="filter4_d_26_13" x="-150.17" y="140.924" width="352.578" height="154.439"
                filterUnits="userSpaceOnUse" color-interpolation-filters="sRGB">
            <feFlood flood-opacity="0" result="BackgroundImageFix"/>
            <feColorMatrix in="SourceAlpha" type="matrix" values="0 0 0 0 0 0 0 0 0 0 0 0 0 0 0 0 0 0 127 0"
                           result="hardAlpha"/>
            <feOffset dy="4"/>
            <feGaussianBlur stdDeviation="5"/>
            <feComposite in2="hardAlpha" operator="out"/>
            <feColorMatrix type="matrix" values="0 0 0 0 0.313726 0 0 0 0 0.564706 0 0 0 0 0.882353 0 0 0 1 0"/>
            <feBlend mode="normal" in2="BackgroundImageFix" result="effect1_dropShadow_26_13"/>
            <feBlend mode="normal" in="SourceGraphic" in2="effect1_dropShadow_26_13" result="shape"/>
        </filter>
        <filter id="filter5_d_26_13" x="550.347" y="77.1816" width="92.332" height="92.3322"
                filterUnits="userSpaceOnUse" color-interpolation-filters="sRGB">
            <feFlood flood-opacity="0" result="BackgroundImageFix"/>
            <feColorMatrix in="SourceAlpha" type="matrix" values="0 0 0 0 0 0 0 0 0 0 0 0 0 0 0 0 0 0 127 0"
                           result="hardAlpha"/>
            <feOffset dy="4"/>
            <feGaussianBlur stdDeviation="14"/>
            <feComposite in2="hardAlpha" operator="out"/>
            <feColorMatrix type="matrix" values="0 0 0 0 0.682353 0 0 0 0 0.827451 0 0 0 0 0.309804 0 0 0 1 0"/>
            <feBlend mode="normal" in2="BackgroundImageFix" result="effect1_dropShadow_26_13"/>
            <feBlend mode="normal" in="SourceGraphic" in2="effect1_dropShadow_26_13" result="shape"/>
        </filter>
        <filter id="filter6_d_26_13" x="1114.95" y="39.9101" width="282.226" height="282.226"
                filterUnits="userSpaceOnUse" color-interpolation-filters="sRGB">
            <feFlood flood-opacity="0" result="BackgroundImageFix"/>
            <feColorMatrix in="SourceAlpha" type="matrix" values="0 0 0 0 0 0 0 0 0 0 0 0 0 0 0 0 0 0 127 0"
                           result="hardAlpha"/>
            <feOffset dy="4"/>
            <feGaussianBlur stdDeviation="35.5"/>
            <feComposite in2="hardAlpha" operator="out"/>
            <feColorMatrix type="matrix" values="0 0 0 0 0.305882 0 0 0 0 0.603922 0 0 0 0 0.596078 0 0 0 1 0"/>
            <feBlend mode="normal" in2="BackgroundImageFix" result="effect1_dropShadow_26_13"/>
            <feBlend mode="normal" in="SourceGraphic" in2="effect1_dropShadow_26_13" result="shape"/>
        </filter>
        <filter id="filter7_d_26_13" x="-74.6458" y="598.519" width="336.786" height="336.18"
                filterUnits="userSpaceOnUse" color-interpolation-filters="sRGB">
            <feFlood flood-opacity="0" result="BackgroundImageFix"/>
            <feColorMatrix in="SourceAlpha" type="matrix" values="0 0 0 0 0 0 0 0 0 0 0 0 0 0 0 0 0 0 127 0"
                           result="hardAlpha"/>
            <feOffset dy="4"/>
            <feGaussianBlur stdDeviation="20"/>
            <feComposite in2="hardAlpha" operator="out"/>
            <feColorMatrix type="matrix" values="0 0 0 0 0.305882 0 0 0 0 0.603922 0 0 0 0 0.596078 0 0 0 1 0"/>
            <feBlend mode="normal" in2="BackgroundImageFix" result="effect1_dropShadow_26_13"/>
            <feBlend mode="normal" in="SourceGraphic" in2="effect1_dropShadow_26_13" result="shape"/>
        </filter>
        <linearGradient id="paint0_linear_26_13" x1="495.059" y1="-41.642" x2="403.222" y2="71.9536"
                        gradientUnits="userSpaceOnUse">
            <stop offset="0.0208333" stop-color="#5A76BD"/>
            <stop offset="1" stop-color="#6E8967"/>
        </linearGradient>
        <radialGradient id="paint1_radial_26_13" cx="0" cy="0" r="1" gradientUnits="userSpaceOnUse"
                        gradientTransform="translate(1311.48 654.583) rotate(43.3409) scale(256.434)">
            <stop offset="0.333333" stop-color="#18111D"/>
            <stop offset="1" stop-color="#C3BEF3"/>
        </radialGradient>
        <radialGradient id="paint2_radial_26_13" cx="0" cy="0" r="1" gradientUnits="userSpaceOnUse"
                        gradientTransform="translate(-24.5379 209.05) rotate(43.3409) scale(214.008)">
            <stop offset="0.333333" stop-color="#18111D"/>
            <stop offset="1" stop-color="#5090E1"/>
        </radialGradient>
    </defs>
</svg>
