<svg width="560" height="909" viewBox="0 0 560 909" fill="none" xmlns="http://www.w3.org/2000/svg">
<circle cx="280" cy="629" r="280" fill="#4844AE"/>
<circle cx="305" cy="100" r="100" fill="#130676"/>
<rect x="145" y="135" width="111" height="210" rx="30" fill="#643F88"/>
<rect x="205" y="100" width="200" height="262" rx="20" fill="#130676"/>
<rect x="269" y="82" width="184" height="106" rx="53" fill="#C5FEFF"/>
<rect x="273.557" y="256" width="137.375" height="70" rx="30" transform="rotate(40.6032 273.557 256)" fill="#130676"/>
<rect x="377.507" y="331.719" width="136" height="70" rx="30" transform="rotate(90 377.507 331.719)" fill="#130676"/>
<rect x="348.557" y="256" width="137.375" height="70" rx="30" transform="rotate(40.6032 348.557 256)" fill="#130676"/>
<rect x="452.508" y="331.719" width="136" height="70" rx="30" transform="rotate(90 452.508 331.719)" fill="#130676"/>
<circle cx="133" cy="493" r="50" fill="#130676"/>
<circle cx="286" cy="583" r="63" fill="#130676"/>
<circle cx="235.5" cy="414.5" r="26.5" fill="#130676"/>
<circle cx="440.5" cy="658.5" r="29.5" fill="#130676"/>
<circle cx="145" cy="719" r="38" fill="#130676"/>
<circle cx="133" cy="612" r="17" fill="#130676"/>
<circle cx="331.5" cy="836.5" r="11.5" fill="#130676"/>
<circle cx="392.5" cy="765.5" r="25.5" fill="#130676"/>
<circle cx="307" cy="723" r="17" fill="#130676"/>
</svg>
