<svg width="190" height="203" viewBox="0 0 190 203" fill="none" xmlns="http://www.w3.org/2000/svg">
<path d="M10 52C10 40.9543 18.9543 32 30 32H161C172.046 32 181 40.9543 181 52V154H10V52Z" fill="#4177DD"/>
<rect x="1" y="59" width="189" height="45" rx="10" fill="#4844AE"/>
<rect x="1" y="59" width="189" height="45" rx="10" fill="#4177DD"/>
<rect x="1" y="59" width="189" height="45" rx="10" fill="black" fill-opacity="0.25"/>
<path d="M0 179C0 154.147 20.1472 134 45 134H145C169.853 134 190 154.147 190 179V203H0V179Z" fill="#FB6600"/>
<path d="M97 134H145C169.853 134 190 154.147 190 179V203H97V134Z" fill="black" fill-opacity="0.25"/>
<path d="M37 196C37 190.477 41.4772 186 47 186H144C149.523 186 154 190.477 154 196V203H37V196Z" fill="#4177DD"/>
<path d="M97 186H144C149.523 186 154 190.477 154 196V203H97V186Z" fill="black" fill-opacity="0.25"/>
<path d="M155.641 124.141C103.241 175.741 53.4744 145.641 35.1411 124.141C24.3411 124.141 25.3077 131.807 27.1411 135.641C80.7411 189.641 140.474 158.141 163.641 135.641C166.441 124.841 159.474 123.474 155.641 124.141Z" fill="#FFC059"/>
<ellipse cx="95.5" cy="77" rx="77.5" ry="77" fill="#FB6600"/>
<path d="M95.5 0C105.677 1.20582e-07 115.755 1.99166 125.158 5.86128C134.561 9.73089 143.104 15.4027 150.301 22.5528C157.497 29.7029 163.206 38.1913 167.101 47.5334C170.995 56.8755 173 66.8882 173 77C173 87.1118 170.995 97.1246 167.101 106.467C163.206 115.809 157.497 124.297 150.301 131.447C143.104 138.597 134.561 144.269 125.158 148.139C115.755 152.008 105.677 154 95.5 154L95.5 77V0Z" fill="black" fill-opacity="0.25"/>
<ellipse cx="95.5" cy="77" rx="64.5" ry="77" fill="#FB6600"/>
<path d="M151 59.9213C105.441 7.54198 57.3503 38.0966 39 59.9214V105.403C84.939 155.384 132.808 126.228 151 105.403V59.9213Z" fill="#C5FEFF"/>
<path d="M151 59.9213C105.441 7.54198 57.3503 38.0966 39 59.9214V105.403C84.939 155.384 132.808 126.228 151 105.403V59.9213Z" fill="#F3FFFF"/>
<path d="M141 59.9213C99.5085 7.54198 55.7119 38.0966 39 59.9214V105.403C80.8373 155.384 124.432 126.228 141 105.403V59.9213Z" fill="#C5FEFF"/>
</svg>
