<svg width="686" height="975" viewBox="0 0 686 975" fill="none" xmlns="http://www.w3.org/2000/svg">
<circle cx="342.929" cy="631.929" r="280" transform="rotate(-15 342.929 631.929)" fill="#130676"/>
<path d="M415.398 902.388C487.128 883.168 548.285 836.24 585.416 771.929C622.546 707.617 632.608 631.189 613.388 559.459C594.168 487.729 547.24 426.572 482.929 389.441C418.617 352.311 342.19 342.249 270.459 361.469L342.929 631.929L415.398 902.388Z" fill="#4844AE"/>
<ellipse cx="343.412" cy="631.799" rx="206.5" ry="280" transform="rotate(-15 343.412 631.799)" fill="#4844AE"/>
<circle cx="363" cy="100" r="100" fill="#4177DD"/>
<rect x="203" y="135" width="111" height="210" rx="30" fill="#643F88"/>
<rect x="263" y="100" width="200" height="262" rx="20" fill="#4177DD"/>
<rect x="327" y="82" width="184" height="106" rx="53" fill="#C5FEFF"/>
<rect x="331.557" y="256" width="137.375" height="70" rx="30" transform="rotate(40.6032 331.557 256)" fill="#4177DD"/>
<rect x="435.507" y="331.719" width="136" height="70" rx="30" transform="rotate(90 435.507 331.719)" fill="#4177DD"/>
<rect x="406.557" y="256" width="137.375" height="70" rx="30" transform="rotate(40.6032 406.557 256)" fill="#4177DD"/>
<rect x="510.508" y="331.719" width="136" height="70" rx="30" transform="rotate(90 510.508 331.719)" fill="#4177DD"/>
<circle cx="279" cy="554" r="50" fill="#130676"/>
<circle cx="420" cy="569" r="63" fill="#130676"/>
<circle cx="287.5" cy="403.5" r="26.5" fill="#130676"/>
<circle cx="498.5" cy="669.5" r="29.5" fill="#130676"/>
<circle cx="267" cy="707" r="38" fill="#130676"/>
<circle cx="178" cy="506" r="17" fill="#130676"/>
<circle cx="395.5" cy="849.5" r="11.5" fill="#130676"/>
<circle cx="483.5" cy="775.5" r="25.5" fill="#130676"/>
<circle cx="395" cy="735" r="17" fill="#130676"/>
</svg>
