<svg width="256" height="313" viewBox="0 0 256 313" fill="none" xmlns="http://www.w3.org/2000/svg">
<path d="M174.492 189.674L136.386 211.674C130.329 230.182 133.677 229.981 160.1 244.748C181.239 256.561 195.967 272.538 200.689 279.049C196.939 272.554 192.55 247.952 196.907 223.498C200.392 203.934 183.415 192.797 174.492 189.674Z" fill="#FB6600"/>
<path d="M174.487 189.676L137.248 211.176C137.418 221.471 148.145 221.051 157.207 222.747C164.457 224.104 171.18 231.615 173.635 235.201C171.216 221.01 174.399 225.523 177.559 210.997C180.087 199.376 176.564 191.941 174.487 189.676Z" fill="#FFC059"/>
<path d="M176.341 237.681L151.127 202.009L158.921 197.509L176.341 237.681Z" fill="#130676"/>
<path d="M91.3122 209.407C93.8796 195.454 123.434 176.043 137.89 168.082C165.256 152.282 184.059 151.049 190.039 152.407C202.039 173.192 221.357 193.985 229.516 201.784C229.399 208.78 226.149 211.618 224.539 212.163C215.621 203.917 187.292 189.982 174.241 184.045L130.507 209.295C117.004 226.906 132.374 266.529 125.812 269.163C120.562 271.27 117.417 268.622 116.5 267.034C117.35 257.306 100.062 224.563 91.3122 209.407Z" fill="#130676"/>
<path d="M136.786 211.443C47.6232 164.87 57.4153 89.3963 73.4567 57.4808L155.957 200.375L136.786 211.443Z" fill="#4844AE"/>
<path d="M174.719 189.542C177.974 89.6123 108.567 59.8638 73.4567 57.4808L155.957 200.375L174.719 189.542Z" fill="#4177DD"/>
<circle cx="106.457" cy="114.638" r="17" transform="rotate(-30 106.457 114.638)" fill="#C5FEFF"/>
<path d="M73.7067 57.9138L58.9567 32.366" stroke="#F3FFFF"/>
<circle cx="59.4567" cy="33.2321" r="2" transform="rotate(-30 59.4567 33.2321)" fill="#F3FFFF"/>
</svg>
