<svg width="875" height="875" viewBox="0 0 875 875" fill="none" xmlns="http://www.w3.org/2000/svg">
<path d="M596.864 497.411L504.36 589.915C501.206 647.73 510.667 644.576 597.915 666.651C667.713 684.311 722.304 718.859 740.875 733.926C725.107 718.159 693.572 650.883 687.265 577.301C682.219 518.435 624.895 499.514 596.864 497.411Z" fill="#F3FFFF"/>
<path d="M596.852 497.423L506.45 587.825C514.86 617.258 545.344 607.797 572.675 605.695C594.539 604.013 619.627 620.411 629.438 628.82C611.568 589.927 624.182 600.439 622.08 556.289C620.398 520.97 604.56 502.329 596.852 497.423Z" fill="#F3FFFF"/>
<path d="M639.115 633.861L539.253 550.818L558.175 531.897L639.115 633.861Z" fill="#F3FFFF"/>
<path d="M373.169 618.093C369.805 576.046 439.743 497.558 475.133 463.57C541.568 397.136 594.617 379.125 612.837 378.425C663.294 428.881 734.774 473.731 764.207 489.85C769.253 510.032 762.105 520.684 757.9 523.487C725.944 506.668 633.861 488.448 591.814 481.44L485.645 587.609C460.417 648.577 535.05 750.542 518.231 763.156C504.776 773.247 493.704 768.061 489.85 764.207C484.804 735.615 409.96 654.884 373.169 618.093Z" fill="#F3FFFF"/>
<path d="M505.33 588.946C213.427 523.808 183.47 299.521 204.979 195.52L551.868 542.408L505.33 588.946Z" fill="#F3FFFF"/>
<path d="M597.416 496.86C529.866 207.369 307.646 175.345 204.98 195.519L551.869 542.408L597.416 496.86Z" fill="#F3FFFF"/>
<circle cx="343.735" cy="334.275" r="50.5441" transform="rotate(-45 343.735 334.275)" fill="#F3FFFF"/>
<path d="M206.03 196.57L144.01 134.551" stroke="#F3FFFF"/>
<circle cx="146.113" cy="136.653" r="5.94636" transform="rotate(-45 146.113 136.653)" fill="#F3FFFF"/>
</svg>
