<svg width="83" height="167" viewBox="0 0 83 167" fill="none" xmlns="http://www.w3.org/2000/svg">
<path d="M56.1108 123.074H28.3402C19.1885 131.279 21.0819 132.226 30.8648 148.636C38.6911 161.764 41.6995 175.144 42.2255 180.194C42.2255 175.46 47.5903 160.628 57.6887 148.636C65.7674 139.043 60.0029 127.598 56.1108 123.074Z" fill="#FB6600"/>
<path d="M56.1079 123.074H28.9684C25.8126 128.755 31.8085 131.911 36.2266 135.697C39.7611 138.727 41.0654 144.954 41.2758 147.689C44.4316 139.169 44.7471 142.64 51.0587 135.697C56.1079 130.143 56.5286 124.968 56.1079 123.074Z" fill="#FB6600"/>
<path d="M41.9714 149.898L39.4468 122.443H45.1271L41.9714 149.898Z" fill="#FB6600"/>
<path d="M4.41806 107.611C10.2246 100.795 32.5043 99.5115 42.9183 99.7218C62.8626 99.7218 73.5291 104.981 76.3693 107.611C76.3693 122.759 80.3665 140.221 82.3652 147.058C80.093 150.845 77.4212 151.371 76.3693 151.161C74.0971 143.839 63.0099 127.282 57.7503 119.919H25.8772C12.9386 125.283 8.83611 151.792 4.41806 151.161C0.883611 150.656 0 148.215 0 147.058C3.53445 142.009 4.41806 118.656 4.41806 107.611Z" fill="#FB6600"/>
<path d="M28.6314 123.074C-5.40738 69.4805 23.7627 31.3171 42.6026 18.9346L42.6026 123.074H28.6314Z" fill="#FB6600"/>
<path d="M56.2762 123.074C89.5908 69.4805 61.0413 31.3171 42.6023 18.9346L42.6023 123.074H56.2762Z" fill="#FB6600"/>
<circle cx="42.6026" cy="60.5905" r="10.7296" fill="#FB6600"/>
<path d="M42.6025 19.2501V0.631104" stroke="#FB6600"/>
<circle cx="42.6029" cy="1.2623" r="1.2623" fill="#FB6600"/>
</svg>
