<svg width="154" height="149" viewBox="0 0 154 149" fill="none" xmlns="http://www.w3.org/2000/svg">
<path d="M65.4168 145.804L65.6047 145.043C68.926 131.587 72.2364 118.184 75.5465 104.782C75.3856 104.696 75.2245 104.61 75.0631 104.524C74.9 104.696 74.7336 104.866 74.5775 105.024C74.4061 105.199 74.2472 105.36 74.1189 105.499C73.6574 105.998 73.4061 106.371 73.3247 106.704C71.7321 113.24 68.9676 118.274 64.7652 121.895C60.5675 125.513 55.0285 127.639 48.0315 128.534C42.3018 129.268 36.6602 130.808 31.0073 132.569C29.0766 133.17 27.1374 133.8 25.193 134.431C21.4762 135.638 17.7405 136.851 14.0098 137.884L11.4133 138.603L12.912 136.364C21.1685 124.03 26.3092 110.445 29.4586 96.0248L65.4168 145.804ZM65.4168 145.804L66.1113 146.168M65.4168 145.804L66.1113 146.168M66.1113 146.168C68.768 147.561 70.8194 148.338 72.6971 147.857C74.5709 147.377 75.9582 145.722 77.5619 143.385C78.9451 141.37 80.3043 139.344 81.6608 137.321C86.2821 130.432 90.871 123.591 96.2629 117.419C99.1949 114.063 102.059 110.717 103.157 107.064C103.718 105.201 103.824 103.251 103.272 101.185C102.802 99.4284 101.868 97.6289 100.399 95.7507C100.803 95.537 101.189 95.3329 101.561 95.1361C102.953 94.4007 104.152 93.7669 105.342 93.1154L104.887 92.2829L105.343 93.1154C121.339 84.3594 133.493 73.331 141.525 59.8928C149.558 46.4515 153.432 30.6593 152.962 12.4364L152.962 12.4362C152.9 10.0717 152.824 8.18532 152.577 6.7133C152.329 5.2336 151.887 4.02329 150.978 3.1281C150.073 2.23718 148.842 1.79327 147.326 1.53204C145.813 1.27125 143.866 1.17015 141.41 1.07945L141.41 1.07944C106.177 -0.215282 79.5103 14.3297 61.4048 44.087L61.4046 44.0874C60.3662 45.7956 59.3986 47.5527 58.4118 49.3449C58.1008 49.9096 57.7879 50.4778 57.4703 51.0491C57.0678 50.8323 56.6722 50.6181 56.2818 50.4066C54.7031 49.5515 53.2097 48.7426 51.6928 48.0051C49.7384 47.0504 48.1695 46.3326 46.825 45.8989C45.4652 45.4602 44.2705 45.2898 43.0749 45.4838C41.8862 45.6767 40.7993 46.2135 39.629 47.0075C38.4686 47.7947 37.1541 48.8864 35.5274 50.2464L35.527 50.2467C25.6167 58.5406 15.4358 66.5486 5.07387 74.282C4.98822 74.3458 4.90159 74.4102 4.81427 74.475C3.66264 75.3304 2.39069 76.2752 1.6652 77.3719C1.24981 77.9998 0.973169 78.7288 1.00206 79.5622C1.03068 80.3882 1.35547 81.2026 1.93485 82.0152H1.93485C2.64934 83.0182 4.04808 83.6862 5.3375 84.0455C6.65192 84.4118 8.18642 84.5505 9.35972 84.2061C12.3753 83.3238 15.3092 82.1713 18.1919 81.039C18.4267 80.9468 18.6612 80.8547 18.8953 80.7629C22.021 79.5373 25.0966 78.3602 28.2566 77.5432C33.503 76.1956 39.0443 75.846 44.6212 75.4942C44.9611 75.4727 45.301 75.4513 45.6411 75.4296L45.6435 75.4295C45.6462 75.4293 45.7369 75.4264 45.9547 75.5597C46.1682 75.6903 46.4183 75.8987 46.7155 76.1842C46.9321 76.3923 47.1454 76.613 47.3733 76.8488C47.4595 76.938 47.5477 77.0293 47.639 77.1229C47.6474 77.1315 47.6558 77.1401 47.6642 77.1487M66.1113 146.168L47.6642 77.1487M47.6642 77.1487C47.5507 77.2241 47.4389 77.2991 47.3301 77.3721C47.0884 77.5343 46.8615 77.6866 46.6628 77.8114C45.985 78.2372 45.4526 78.4798 44.9743 78.5157L44.971 78.516C40.8234 78.8409 37.9569 79.3621 35.8478 80.9578C33.7229 82.5655 32.5365 85.131 31.3254 89C30.5969 91.3044 29.971 93.664 29.4589 96.0236L47.6642 77.1487Z" fill="#6183E7" stroke="#1D152C" stroke-width="2"/>
<path d="M64.6427 135.157L64.8282 134.4C67.4284 123.779 70.0201 113.2 72.6117 102.622C72.581 102.605 72.5503 102.589 72.5196 102.572C72.4225 102.674 72.3261 102.772 72.2355 102.865C72.1042 103 71.9849 103.123 71.8929 103.223C71.5339 103.614 71.3677 103.878 71.3166 104.088C71.3165 104.088 71.3165 104.088 71.3164 104.088L70.3447 103.852C67.8952 113.988 61.9174 119.175 51.1114 120.568L64.6427 135.157ZM64.6427 135.157L65.3322 135.522M64.6427 135.157L65.3322 135.522M50.5982 80.5671C50.5769 80.5449 50.5558 80.5229 50.535 80.5011C50.3567 80.3152 50.1929 80.1443 50.0255 79.9821C49.7951 79.759 49.6115 79.6064 49.4633 79.515C49.3849 79.4667 49.3402 79.4502 49.3235 79.4451C49.065 79.4617 48.8067 79.4782 48.5485 79.4946C44.156 79.774 39.8166 80.0501 35.7103 81.1134C33.239 81.7576 30.8309 82.6865 28.3714 83.6587C28.1869 83.7317 28.002 83.8049 27.8167 83.8783C25.5505 84.7757 23.2334 85.6934 20.8509 86.3961M50.5982 80.5671L20.8509 86.3961M50.5982 80.5671C50.5723 80.5846 50.5467 80.6019 50.5213 80.6191C50.335 80.7451 50.163 80.8613 50.0181 80.9531C49.4896 81.2878 49.1092 81.4545 48.7899 81.4786L48.7866 81.4789C45.5257 81.7364 43.21 82.151 41.4951 83.4591C39.7662 84.7779 38.8182 86.8708 37.8652 89.9398L50.5982 80.5671ZM20.8509 86.3961C19.8725 86.6854 18.6198 86.5653 17.5662 86.2693C16.5366 85.9801 15.3775 85.4328 14.7731 84.5776M20.8509 86.3961L14.7731 84.5776M14.7731 84.5776C14.3007 83.9099 14.026 83.2263 14.0017 82.5218M14.7731 84.5776L14.0017 82.5218M65.3322 135.522C67.4149 136.623 69.1007 137.285 70.6699 136.88C72.2334 136.476 73.365 135.09 74.6201 133.247C75.7111 131.644 76.7822 130.035 77.8505 128.429C81.4845 122.967 85.0847 117.556 89.3168 112.672C91.6163 110.019 93.9031 107.331 94.782 104.384C95.2325 102.874 95.3186 101.291 94.8737 99.6123C94.512 98.2481 93.8096 96.8593 92.7244 95.421C92.9641 95.2931 93.1963 95.1694 93.4221 95.0491C94.5179 94.4652 95.4637 93.9613 96.4015 93.4438L95.9432 92.6131L96.4016 93.4438C109.013 86.4844 118.604 77.7133 124.944 67.0181C131.286 56.3201 134.341 43.7567 133.97 29.272L133.97 29.2719C133.922 27.3992 133.862 25.8889 133.665 24.7052C133.467 23.5146 133.108 22.5048 132.348 21.7501C131.591 20.9986 130.572 20.6356 129.361 20.4252C128.154 20.2154 126.607 20.135 124.677 20.0632L124.677 20.0632C110.81 19.5494 98.5923 22.1709 88.0435 27.9089C77.4952 33.6465 68.6719 42.4699 61.5476 54.2749L61.5474 54.2752C60.7283 55.6338 59.9635 57.034 59.186 58.4576C58.9757 58.8425 58.7645 59.2293 58.5511 59.6173C58.3015 59.4815 58.0549 59.3469 57.8107 59.2136C56.5666 58.5342 55.385 57.889 54.1869 57.3017C52.6504 56.545 51.404 55.9694 50.3301 55.6202C49.2406 55.2658 48.2635 55.1217 47.2768 55.2831C46.2972 55.4434 45.4119 55.8882 44.4785 56.5266C43.5551 57.1582 42.5122 58.0317 41.2349 59.1082L41.2346 59.1086M65.3322 135.522L41.2346 59.1086M41.2346 59.1086C33.4418 65.6836 25.4361 72.0323 17.2877 78.1633M41.2346 59.1086L17.2877 78.1633M17.2877 78.1633C17.2185 78.2154 17.1481 78.2681 17.0768 78.3214M17.2877 78.1633L17.0768 78.3214M17.0768 78.3214C16.1791 78.9933 15.1486 79.7646 14.5566 80.6667M17.0768 78.3214L14.5566 80.6667M14.5566 80.6667C14.2124 81.1914 13.9773 81.8101 14.0017 82.5218M14.5566 80.6667L14.0017 82.5218" fill="#949EF9" stroke="#1D152C" stroke-width="2"/>
</svg>
