<svg width="370" height="380" viewBox="0 0 370 380" fill="none" xmlns="http://www.w3.org/2000/svg">
<path d="M334.275 157.199C345.443 211.749 300.774 274.131 246.533 320.58C192.292 367.298 128.48 398.354 85.406 367.839C42.3324 337.323 20.2259 245.236 40.7371 175.293C61.4762 105.349 125.289 57.5505 190.697 57.0104C256.105 56.2002 323.108 102.919 334.275 157.199Z" fill="black" fill-opacity="0.25"/>
<rect x="41.7125" y="102.467" width="51.2959" height="110.927" rx="10" transform="rotate(-45 41.7125 102.467)" fill="#4844AE"/>
<rect x="112.896" y="257.075" width="33.3423" height="19.236" rx="9.61798" transform="rotate(-45 112.896 257.075)" fill="#FFC059"/>
<rect x="188.613" y="249.367" width="51.2959" height="110.927" rx="10" transform="rotate(-45 188.613 249.367)" fill="#4844AE"/>
<rect x="203.575" y="250.728" width="13.4652" height="13.4652" rx="5" transform="rotate(-45 203.575 250.728)" fill="black" fill-opacity="0.25"/>
<rect x="56.6746" y="103.827" width="13.4652" height="13.4652" rx="5" transform="rotate(-45 56.6746 103.827)" fill="black" fill-opacity="0.25"/>
<rect x="216.723" y="237.579" width="13.4652" height="13.4652" rx="5" transform="rotate(-45 216.723 237.579)" fill="black" fill-opacity="0.25"/>
<rect x="69.823" y="90.679" width="13.4652" height="13.4652" rx="5" transform="rotate(-45 69.823 90.679)" fill="black" fill-opacity="0.25"/>
<rect x="216.723" y="263.876" width="13.4652" height="13.4652" rx="5" transform="rotate(-45 216.723 263.876)" fill="black" fill-opacity="0.25"/>
<rect x="69.823" y="116.976" width="13.4652" height="13.4652" rx="5" transform="rotate(-45 69.823 116.976)" fill="black" fill-opacity="0.25"/>
<rect x="229.872" y="250.728" width="13.4652" height="13.4652" rx="5" transform="rotate(-45 229.872 250.728)" fill="black" fill-opacity="0.25"/>
<rect x="82.9716" y="103.827" width="13.4652" height="13.4652" rx="5" transform="rotate(-45 82.9716 103.827)" fill="black" fill-opacity="0.25"/>
<rect x="229.872" y="277.024" width="13.4652" height="13.4652" rx="5" transform="rotate(-45 229.872 277.024)" fill="black" fill-opacity="0.25"/>
<rect x="82.9716" y="130.124" width="13.4652" height="13.4652" rx="5" transform="rotate(-45 82.9716 130.124)" fill="black" fill-opacity="0.25"/>
<rect x="243.02" y="263.876" width="13.4652" height="13.4652" rx="5" transform="rotate(-45 243.02 263.876)" fill="black" fill-opacity="0.25"/>
<rect x="96.12" y="116.976" width="13.4652" height="13.4652" rx="5" transform="rotate(-45 96.12 116.976)" fill="black" fill-opacity="0.25"/>
<rect x="243.02" y="290.173" width="13.4652" height="13.4652" rx="5" transform="rotate(-45 243.02 290.173)" fill="black" fill-opacity="0.25"/>
<rect x="96.12" y="143.273" width="13.4652" height="13.4652" rx="5" transform="rotate(-45 96.12 143.273)" fill="black" fill-opacity="0.25"/>
<rect x="256.169" y="277.024" width="13.4652" height="13.4652" rx="5" transform="rotate(-45 256.169 277.024)" fill="black" fill-opacity="0.25"/>
<rect x="109.268" y="130.124" width="13.4652" height="13.4652" rx="5" transform="rotate(-45 109.268 130.124)" fill="black" fill-opacity="0.25"/>
<rect x="256.169" y="303.321" width="13.4652" height="13.4652" rx="5" transform="rotate(-45 256.169 303.321)" fill="black" fill-opacity="0.25"/>
<rect x="109.268" y="156.421" width="13.4652" height="13.4652" rx="5" transform="rotate(-45 109.268 156.421)" fill="black" fill-opacity="0.25"/>
<rect x="269.317" y="290.173" width="13.4652" height="13.4652" rx="5" transform="rotate(-45 269.317 290.173)" fill="black" fill-opacity="0.25"/>
<rect x="122.417" y="143.273" width="13.4652" height="13.4652" rx="5" transform="rotate(-45 122.417 143.273)" fill="black" fill-opacity="0.25"/>
<rect x="135.565" y="165.489" width="6.41199" height="96.821" transform="rotate(-45 135.565 165.489)" fill="#4844AE"/>
<path d="M116.701 241.838C110.843 235.98 110.843 226.483 116.701 220.625L123.324 214.003L153.248 243.927L136.019 261.156L116.701 241.838Z" fill="#FB6600"/>
<path d="M122.417 247.554L139.646 230.325L153.248 243.927L136.019 261.156L122.417 247.554Z" fill="black" fill-opacity="0.25"/>
<path d="M260.023 167.983C253.108 174.897 243.468 178.519 233.222 178.051C222.976 177.584 212.964 173.065 205.388 165.489C197.813 157.914 193.294 147.902 192.826 137.656C192.359 127.41 195.98 117.769 202.895 110.855L231.459 139.419L260.023 167.983Z" fill="#FFC059"/>
<path d="M260.023 167.983C256.599 171.407 252.47 174.058 247.872 175.785C243.273 177.513 238.295 178.283 233.222 178.051C228.149 177.82 223.08 176.591 218.304 174.436C213.528 172.28 209.139 169.24 205.388 165.489L231.459 139.419L260.023 167.983Z" fill="black" fill-opacity="0.25"/>
<path d="M134.562 231.589C122.846 219.873 122.846 200.878 134.562 189.162L177.008 146.717C180.913 142.812 187.245 142.812 191.15 146.717L223.707 179.274C227.613 183.18 227.613 189.511 223.708 193.417L181.262 235.862C169.546 247.578 150.551 247.578 138.836 235.862L134.562 231.589Z" fill="#4177DD"/>
<rect x="195.414" y="105.641" width="12.824" height="96.821" rx="6.41199" transform="rotate(-45 195.414 105.641)" fill="#FB6600"/>
<path d="M229.872 140.099L238.94 131.031L268.41 160.502C270.915 163.006 270.915 167.066 268.41 169.57V169.57C265.906 172.074 261.847 172.074 259.343 169.57L229.872 140.099Z" fill="black" fill-opacity="0.25"/>
<path d="M159.142 164.583L177.008 146.717C180.913 142.812 187.245 142.812 191.15 146.717L223.708 179.274C227.613 183.18 227.613 189.511 223.708 193.417L205.842 211.282L159.142 164.583Z" fill="black" fill-opacity="0.25"/>
<rect x="175.464" y="195.413" width="20.5184" height="20.5184" rx="5" transform="rotate(-45 175.464 195.413)" fill="#C5FEFF"/>
</svg>
