<svg width="44" height="40" viewBox="0 0 44 40" fill="none" xmlns="http://www.w3.org/2000/svg">
<path d="M27.8541 25.777C29.9976 28.1477 28.601 29.7841 26.894 31.6582C24.8734 33.8766 23.2375 36.4119 21.4949 38.8466C20.5573 40.1569 20.1177 40.3032 18.5723 39.5261C19.5454 35.7445 20.5153 31.9781 21.4852 28.2117C21.3074 28.1203 21.1296 28.0289 20.9485 27.9375C20.7028 28.23 20.3181 28.489 20.234 28.8181C19.3385 32.3438 17.153 34.1478 13.2023 34.6323C9.85622 35.0437 6.63618 36.354 3.37735 37.2194C5.77621 33.7821 7.26661 30.0005 8.17831 25.9964C8.32379 25.3534 8.50161 24.7105 8.70852 24.0827C9.4036 21.9527 9.98877 21.5627 12.3812 21.3829C12.8047 21.3524 13.1959 20.9867 13.6032 20.7765C13.2444 20.4961 12.8693 19.9598 12.5331 19.9811C10.839 20.0848 9.11264 20.1701 7.47999 20.5723C5.62427 21.0324 3.8817 21.8948 2.03567 22.4128C1.50547 22.5622 0.509712 22.3092 0.215512 21.9131C-0.359956 21.1391 0.318967 20.6881 1.05608 20.1609C4.04011 18.0248 6.97241 15.8125 9.82712 13.521C11.7119 12.0096 11.9156 11.8846 14.1658 12.939C14.78 13.2254 15.3749 13.5484 16.0667 13.9019C16.5064 13.1523 16.8944 12.4423 17.3308 11.7536C22.4842 3.62966 30.0558 -0.331751 40.0845 0.0217285C42.923 0.122287 43.0588 0.262461 43.1299 2.88613C43.3983 12.8506 38.7137 20.1 29.5838 24.8933C29.073 25.1615 28.5589 25.4174 27.8541 25.777Z" fill="#949EF9"/>
</svg>
